<svg width="488" height="398" viewBox="0 0 488 398" fill="none" xmlns="http://www.w3.org/2000/svg">
<path d="M16.1201 119.988C17.5834 119.207 19.1412 118.614 20.7472 118.21L21.7003 114.161L29.4386 114.041L30.5524 118.058C32.1742 118.411 33.7539 118.955 35.2477 119.691L39.1588 117.425L44.7264 122.177L42.3026 125.712C43.1875 127.006 43.8572 128.384 44.3139 129.804L48.8937 130.646L49.0301 137.488L44.4871 138.472C44.0871 139.905 43.472 141.303 42.6396 142.622L45.2029 146.08L39.8275 151.002L35.8292 148.859C34.3659 149.64 32.8082 150.233 31.2011 150.636L30.248 154.685L22.5096 154.804L21.3959 150.788C19.7741 150.434 18.1943 149.891 16.7006 149.155L12.7895 151.421L7.22188 146.668L9.64563 143.134C8.76179 141.84 8.09103 140.463 7.63441 139.042L3.0546 138.199L2.91919 131.358L7.46226 130.373C7.8622 128.94 8.47732 127.543 9.30972 126.222L6.74637 122.765L12.1219 117.842L16.1201 119.988ZM20.2454 129.102C17.0607 132.019 17.153 136.665 20.4522 139.481C23.7504 142.297 29.0072 142.215 32.192 139.298C35.3768 136.381 35.2844 131.735 31.9852 128.919C28.686 126.104 23.4302 126.185 20.2454 129.102Z" fill="#F5F5F5"/>
<path d="M284.248 5.31619C285.493 4.6508 286.818 4.14596 288.186 3.80259L288.997 0.355928L295.584 0.253845L296.532 3.67267C297.913 3.97335 299.257 4.43643 300.528 5.06285L303.857 3.13349L308.596 7.17873L306.533 10.1874C307.285 11.2889 307.856 12.461 308.245 13.6702L312.142 14.3876L312.258 20.2109L308.391 21.0489C308.05 22.2693 307.527 23.4581 306.818 24.5819L308.999 27.5256L304.424 31.7156L301.021 29.8911C299.775 30.5565 298.449 31.0613 297.081 31.4038L296.27 34.8504L289.683 34.9525L288.735 31.5337C287.355 31.233 286.01 30.7699 284.739 30.1435L281.41 32.0729L276.671 28.0276L278.735 25.019C277.982 23.9174 277.411 22.7453 277.023 21.5361L273.124 20.8188L273.009 14.9954L276.876 14.1574C277.216 12.9371 277.74 11.7483 278.448 10.6245L276.267 7.68172L280.842 3.49171L284.248 5.31619ZM287.759 13.0735C285.047 15.556 285.126 19.5112 287.934 21.9083C290.742 24.3053 295.216 24.2348 297.926 21.7524C300.636 19.2699 300.559 15.3147 297.751 12.9185C294.943 10.5215 290.469 10.5911 287.759 13.0735Z" fill="#F5F5F5"/>
<path d="M61.555 9.27421C63.5778 8.194 65.7318 7.37456 67.9519 6.81589L69.2693 1.21714L79.9677 1.05103L81.5076 6.6043C83.7498 7.09244 85.9342 7.84506 87.9989 8.86217L93.4059 5.72825L101.103 12.2996L97.7516 17.1856C98.9745 18.9748 99.9014 20.8791 100.532 22.8428L106.864 24.0075L107.052 33.4658L100.771 34.8272C100.218 36.8086 99.3671 38.7398 98.2166 40.5652L101.76 45.3464L94.3286 52.1525L88.8009 49.1893C86.7781 50.2704 84.6242 51.0889 82.403 51.6467L81.0846 57.2454L70.3861 57.4115L68.8483 51.8601C66.6062 51.3711 64.4218 50.6194 62.357 49.6023L56.95 52.7362L49.2516 46.1649L52.6033 41.2779C51.3804 39.4896 50.4535 37.5853 49.8226 35.6216L43.4909 34.457L43.303 24.9986L49.5843 23.6372C50.1365 21.6559 50.9878 19.7237 52.1383 17.8992L48.5945 13.119L56.0263 6.31383L61.555 9.27421ZM67.258 21.8749C62.8546 25.9071 62.9826 32.3318 67.5436 36.2248C72.1045 40.1179 79.3715 40.0047 83.7739 35.9724C88.1763 31.9402 88.0493 25.5155 83.4884 21.6234C78.9285 17.7294 71.6615 17.8426 67.258 21.8749Z" fill="#F5F5F5"/>
<path d="M234.115 171.233C235.579 170.452 237.136 169.859 238.742 169.455L239.695 165.406L247.434 165.286L248.547 169.303C250.169 169.656 251.749 170.2 253.243 170.936L257.154 168.67L262.722 173.422L260.298 176.957C261.183 178.251 261.852 179.629 262.309 181.049L266.889 181.891L267.025 188.733L262.482 189.717C262.082 191.15 261.467 192.548 260.635 193.868L263.198 197.325L257.823 202.248L253.824 200.104C252.361 200.885 250.803 201.478 249.196 201.881L248.243 205.93L240.505 206.05L239.391 202.033C237.769 201.68 236.189 201.136 234.696 200.4L230.785 202.666L225.217 197.914L227.641 194.379C226.757 193.085 226.086 191.708 225.63 190.287L221.05 189.445L220.914 182.603L225.457 181.619C225.857 180.186 226.472 178.788 227.305 177.468L224.741 174.01L230.117 169.088L234.115 171.233ZM238.241 180.347C235.056 183.264 235.148 187.911 238.447 190.726C241.745 193.542 247.002 193.46 250.187 190.543C253.372 187.627 253.279 182.98 249.98 180.164C246.681 177.349 241.425 177.43 238.241 180.347Z" fill="#F5F5F5"/>
<path d="M255.912 293.672C257.375 292.891 258.933 292.298 260.539 291.894L261.492 287.845L269.231 287.726L270.344 291.742C271.966 292.096 273.546 292.64 275.04 293.375L278.951 291.109L284.518 295.863L282.095 299.397C282.98 300.691 283.649 302.069 284.106 303.489L288.686 304.332L288.822 311.173L284.279 312.158C283.879 313.591 283.264 314.988 282.432 316.308L284.995 319.766L279.619 324.688L275.621 322.544C274.158 323.325 272.6 323.918 270.993 324.321L270.04 328.37L262.302 328.49L261.188 324.473C259.566 324.12 257.986 323.576 256.493 322.84L252.581 325.106L247.014 320.354L249.438 316.819C248.554 315.525 247.883 314.148 247.426 312.727L242.847 311.885L242.711 305.043L247.254 304.059C247.654 302.625 248.269 301.228 249.102 299.908L246.538 296.45L251.914 291.528L255.912 293.672ZM260.037 302.786C256.853 305.702 256.945 310.349 260.244 313.165C263.542 315.98 268.799 315.899 271.984 312.982C275.169 310.065 275.076 305.418 271.777 302.603C268.478 299.788 263.222 299.87 260.037 302.786Z" fill="#F5F5F5"/>
<path d="M70.129 217.054C71.1157 216.527 72.1654 216.128 73.2487 215.855L73.8911 213.125L79.1091 213.044L79.8597 215.752C80.9535 215.991 82.0189 216.357 83.0255 216.854L85.6624 215.325L89.4171 218.53L87.7828 220.913C88.379 221.785 88.8314 222.714 89.139 223.672L92.2272 224.24L92.3185 228.853L89.2555 229.517C88.9857 230.484 88.5711 231.425 88.0095 232.316L89.7373 234.648L86.1127 237.967L83.4171 236.522C82.4304 237.049 81.3796 237.449 80.2963 237.721L79.6539 240.451L74.4359 240.532L73.6854 237.823C72.5916 237.585 71.5272 237.218 70.5195 236.722L67.8827 238.25L64.1279 235.046L65.7623 232.663C65.1661 231.79 64.7136 230.862 64.4061 229.904L61.3179 229.336L61.2266 224.722L64.2906 224.058C64.5604 223.092 64.975 222.15 65.5366 221.259L63.8078 218.928L67.4324 215.608L70.129 217.054ZM72.9107 223.2C70.763 225.166 70.825 228.299 73.0503 230.198C75.2746 232.096 78.8184 232.041 80.9661 230.074C83.1137 228.108 83.0507 224.975 80.8264 223.076C78.6021 221.178 75.0584 221.233 72.9107 223.2Z" fill="#F5F5F5"/>
<path d="M77.8768 252.601C79.6749 251.641 81.5895 250.912 83.564 250.416L84.7354 245.439L94.2467 245.291L95.6155 250.228C97.6089 250.662 99.5508 251.331 101.387 252.235L106.193 249.45L113.037 255.291L110.058 259.635C111.146 261.226 111.97 262.919 112.53 264.664L118.159 265.7L118.326 274.109L112.741 275.319C112.25 277.08 111.494 278.797 110.471 280.42L113.621 284.671L107.014 290.721L102.099 288.087C100.3 289.048 98.3857 289.776 96.4112 290.272L95.2397 295.249L85.7285 295.397L84.3597 290.46C82.3663 290.025 80.4244 289.356 78.5884 288.452L73.7819 291.238L66.9379 285.396L69.918 281.051C68.8315 279.461 68.0065 277.769 67.4459 276.022L61.8164 274.987L61.6495 266.578L67.2339 265.367C67.7252 263.606 68.482 261.888 69.5044 260.266L66.3532 256.015L72.96 249.965L77.8768 252.601ZM82.9468 263.803C79.0314 267.388 79.1458 273.099 83.2008 276.561C87.2547 280.021 93.7156 279.921 97.6299 276.336C101.544 272.751 101.431 267.04 97.3759 263.579C93.3219 260.118 86.8621 260.219 82.9468 263.803Z" fill="#F5F5F5"/>
<path d="M486.362 13.5635H341.99V228.628H486.362V13.5635Z" fill="#E0E0E0"/>
<path d="M481.981 17.6032H345.88V225.093H481.981V17.6032Z" fill="#F5F5F5"/>
<path d="M468.199 28.6884H413.93V103.139H468.199V28.6884Z" fill="white"/>
<path d="M443.951 35.2709C443.951 36.2601 443.044 37.0619 441.925 37.0619C440.806 37.0619 439.899 36.2601 439.899 35.2709C439.899 34.2816 440.806 33.4798 441.925 33.4798C443.044 33.4807 443.951 34.2825 443.951 35.2709Z" fill="#E0E0E0"/>
<path d="M413.507 123.86H359.238V198.31H413.507V123.86Z" fill="white"/>
<path d="M389.259 130.441C389.259 131.43 388.352 132.232 387.233 132.232C386.114 132.232 385.207 131.43 385.207 130.441C385.207 129.452 386.114 128.65 387.233 128.65C388.352 128.651 389.259 129.453 389.259 130.441Z" fill="#E0E0E0"/>
<path d="M404.852 28.6884H358.503V86.8261H404.852V28.6884Z" fill="white"/>
<path d="M383.36 33.9688C383.36 34.7901 382.606 35.4565 381.677 35.4565C380.748 35.4565 379.994 34.7911 379.994 33.9688C379.994 33.1475 380.748 32.4812 381.677 32.4812C382.607 32.4812 383.36 33.1475 383.36 33.9688Z" fill="#E0E0E0"/>
<path d="M469.985 124.883L420.418 129.827L423.516 154.106L473.083 149.163L469.985 124.883Z" fill="white"/>
<path d="M445.787 133.476C446.735 133.476 447.503 132.796 447.503 131.958C447.503 131.12 446.735 130.441 445.787 130.441C444.839 130.441 444.071 131.12 444.071 131.958C444.071 132.796 444.839 133.476 445.787 133.476Z" fill="#E0E0E0"/>
<path d="M406.266 140.841C406.266 141.038 397.745 141.198 387.234 141.198C376.72 141.198 368.2 141.038 368.2 140.841C368.2 140.643 376.72 140.483 387.234 140.483C397.745 140.483 406.266 140.644 406.266 140.841Z" fill="#E0E0E0"/>
<path d="M406.266 146.167C406.266 146.365 397.745 146.525 387.234 146.525C376.72 146.525 368.2 146.365 368.2 146.167C368.2 145.971 376.72 145.81 387.234 145.81C397.745 145.81 406.266 145.971 406.266 146.167Z" fill="#E0E0E0"/>
<path d="M406.266 151.494C406.266 151.692 397.745 151.851 387.234 151.851C376.72 151.851 368.2 151.692 368.2 151.494C368.2 151.296 376.72 151.137 387.234 151.137C397.745 151.137 406.266 151.296 406.266 151.494Z" fill="#E0E0E0"/>
<path d="M406.266 156.821C406.266 157.019 397.745 157.178 387.234 157.178C376.72 157.178 368.2 157.019 368.2 156.821C368.2 156.623 376.72 156.464 387.234 156.464C397.745 156.464 406.266 156.623 406.266 156.821Z" fill="#E0E0E0"/>
<path d="M406.266 162.148C406.266 162.346 397.745 162.505 387.234 162.505C376.72 162.505 368.2 162.345 368.2 162.148C368.2 161.95 376.72 161.791 387.234 161.791C397.745 161.791 406.266 161.95 406.266 162.148Z" fill="#E0E0E0"/>
<path d="M406.266 167.475C406.266 167.672 397.745 167.832 387.234 167.832C376.72 167.832 368.2 167.671 368.2 167.475C368.2 167.278 376.72 167.117 387.234 167.117C397.745 167.116 406.266 167.277 406.266 167.475Z" fill="#E0E0E0"/>
<path d="M406.266 172.801C406.266 172.998 397.745 173.158 387.234 173.158C376.72 173.158 368.2 172.997 368.2 172.801C368.2 172.604 376.72 172.443 387.234 172.443C397.745 172.443 406.266 172.604 406.266 172.801Z" fill="#E0E0E0"/>
<path d="M465.339 135.135C465.37 135.331 456.957 136.542 446.55 137.84C436.14 139.139 427.679 140.033 427.647 139.837C427.616 139.642 436.027 138.431 446.438 137.132C456.843 135.834 465.307 134.939 465.339 135.135Z" fill="#E0E0E0"/>
<path d="M466.095 138.467C466.126 138.662 457.713 139.874 447.306 141.172C436.895 142.471 428.434 143.365 428.403 143.169C428.372 142.973 436.783 141.763 447.194 140.464C457.6 139.165 466.064 138.271 466.095 138.467Z" fill="#E0E0E0"/>
<path d="M466.786 141.543C466.818 141.739 458.404 142.95 447.998 144.248C437.588 145.547 429.125 146.441 429.095 146.245C429.063 146.049 437.475 144.838 447.885 143.54C458.291 142.242 466.755 141.347 466.786 141.543Z" fill="#E0E0E0"/>
<path d="M463.427 44.2633C463.427 44.461 453.799 44.6206 441.926 44.6206C430.049 44.6206 420.423 44.461 420.423 44.2633C420.423 44.0657 430.049 43.9061 441.926 43.9061C453.8 43.9061 463.427 44.0666 463.427 44.2633Z" fill="#E0E0E0"/>
<path d="M463.427 47.4307C463.427 47.6283 453.799 47.788 441.926 47.788C430.049 47.788 420.423 47.6283 420.423 47.4307C420.423 47.233 430.049 47.0734 441.926 47.0734C453.8 47.0734 463.427 47.233 463.427 47.4307Z" fill="#E0E0E0"/>
<path d="M463.427 50.598C463.427 50.7957 453.799 50.9553 441.926 50.9553C430.049 50.9553 420.423 50.7948 420.423 50.598C420.423 50.4004 430.049 50.2407 441.926 50.2407C453.8 50.2407 463.427 50.4004 463.427 50.598Z" fill="#E0E0E0"/>
<path d="M463.427 53.7653C463.427 53.963 453.799 54.1226 441.926 54.1226C430.049 54.1226 420.423 53.9621 420.423 53.7653C420.423 53.5677 430.049 53.4081 441.926 53.4081C453.8 53.4081 463.427 53.5677 463.427 53.7653Z" fill="#E0E0E0"/>
<path d="M463.427 56.9327C463.427 57.1303 453.799 57.29 441.926 57.29C430.049 57.29 420.423 57.1303 420.423 56.9327C420.423 56.735 430.049 56.5754 441.926 56.5754C453.8 56.5745 463.427 56.735 463.427 56.9327Z" fill="#E0E0E0"/>
<path d="M463.427 60.0991C463.427 60.2967 453.799 60.4564 441.926 60.4564C430.049 60.4564 420.423 60.2958 420.423 60.0991C420.423 59.9023 430.049 59.7418 441.926 59.7418C453.8 59.7418 463.427 59.9023 463.427 60.0991Z" fill="#E0E0E0"/>
<path d="M463.427 63.2664C463.427 63.4641 453.799 63.6237 441.926 63.6237C430.049 63.6237 420.423 63.4641 420.423 63.2664C420.423 63.0687 430.049 62.9091 441.926 62.9091C453.8 62.9091 463.427 63.0697 463.427 63.2664Z" fill="#E0E0E0"/>
<path d="M463.427 72.6654C463.427 72.8631 453.799 73.0227 441.926 73.0227C430.049 73.0227 420.423 72.8631 420.423 72.6654C420.423 72.4677 430.049 72.3081 441.926 72.3081C453.8 72.3081 463.427 72.4687 463.427 72.6654Z" fill="#E0E0E0"/>
<path d="M463.731 76.0109C463.731 76.2086 454.104 76.3682 442.23 76.3682C430.352 76.3682 420.727 76.2086 420.727 76.0109C420.727 75.8132 430.352 75.6536 442.23 75.6536C454.103 75.6536 463.731 75.8132 463.731 76.0109Z" fill="#E0E0E0"/>
<path d="M464.033 79.3564C464.033 79.5541 454.405 79.7137 442.532 79.7137C430.655 79.7137 421.029 79.5541 421.029 79.3564C421.029 79.1587 430.655 78.9991 442.532 78.9991C454.406 78.9991 464.033 79.1587 464.033 79.3564Z" fill="#E0E0E0"/>
<path d="M464.336 82.7019C464.336 82.8996 454.708 83.0592 442.835 83.0592C430.958 83.0592 421.332 82.8996 421.332 82.7019C421.332 82.5043 430.958 82.3446 442.835 82.3446C454.708 82.3437 464.336 82.5043 464.336 82.7019Z" fill="#E0E0E0"/>
<path d="M464.639 86.0465C464.639 86.2442 455.011 86.4038 443.138 86.4038C431.26 86.4038 421.635 86.2433 421.635 86.0465C421.635 85.8488 431.26 85.6892 443.138 85.6892C455.011 85.6892 464.639 85.8498 464.639 86.0465Z" fill="#E0E0E0"/>
<path d="M464.942 89.392C464.942 89.5897 455.314 89.7493 443.441 89.7493C431.564 89.7493 421.938 89.5897 421.938 89.392C421.938 89.1944 431.564 89.0348 443.441 89.0348C455.314 89.0348 464.942 89.1944 464.942 89.392Z" fill="#E0E0E0"/>
<path d="M163.313 55.9564H132.204C130.054 55.9564 128.311 54.4159 128.311 52.5153V14.446C128.311 12.5455 130.054 11.0049 132.204 11.0049H151.934L167.206 24.9215V52.5153C167.206 54.4149 165.463 55.9564 163.313 55.9564Z" fill="#F5F5F5"/>
<path d="M162.453 55.9564H133.065C130.44 55.9564 128.311 54.0743 128.311 51.7534V42.3173H167.206V51.7534C167.206 54.0743 165.078 55.9564 162.453 55.9564Z" fill="#E0E0E0"/>
<path d="M142.096 51.1149L143.074 50.0764C143.488 50.5664 143.944 50.817 144.488 50.817C145.195 50.817 145.565 50.4421 145.565 49.7015V46.4998H142.89V45.2498H147.315V49.6143C147.315 51.2773 146.369 52.0949 144.574 52.0949C143.553 52.0958 142.65 51.7497 142.096 51.1149Z" fill="#FAFAFA"/>
<path d="M148.368 51.4991L148.934 50.4226C149.455 50.7205 150.249 50.9228 150.967 50.9228C151.75 50.9228 152.044 50.74 152.044 50.4514C152.044 49.6059 148.51 50.4708 148.51 48.4032C148.51 47.4223 149.51 46.73 151.218 46.73C152.023 46.73 152.914 46.8933 153.468 47.1819L152.904 48.2492C152.327 47.9606 151.751 47.864 151.218 47.864C150.457 47.864 150.13 48.0756 150.13 48.3447C150.13 49.2292 153.665 48.3735 153.665 50.4115C153.665 51.3729 152.653 52.0559 150.903 52.0559C149.912 52.0568 148.912 51.8165 148.368 51.4991Z" fill="#FAFAFA"/>
<path d="M136.552 35.1576L137.771 33.8936C138.57 34.8978 139.601 35.4369 140.842 35.4369C142.503 35.4369 143.365 34.5451 143.365 32.7967V25.4913H138.045V23.8738H145.447V32.7039C145.447 35.604 143.849 37.035 140.842 37.035C139.096 37.035 137.498 36.3659 136.552 35.1576Z" fill="#FAFAFA"/>
<path d="M148.035 35.8453L148.876 34.4328C149.823 35.0277 151.336 35.4555 152.787 35.4555C154.659 35.4555 155.437 34.9534 155.437 34.1173C155.437 31.9049 148.392 33.8203 148.392 29.8976C148.392 28.1316 150.18 26.9418 153.039 26.9418C154.49 26.9418 156.13 27.2768 157.097 27.8337L156.235 29.2461C155.227 28.6698 154.112 28.4656 153.018 28.4656C151.252 28.4656 150.39 29.0419 150.39 29.8224C150.39 32.1462 157.455 30.2502 157.455 34.0792C157.455 35.8638 155.604 36.9979 152.64 36.9979C150.79 36.9988 148.96 36.4967 148.035 35.8453Z" fill="#FAFAFA"/>
<path d="M151.934 11.0049V21.7189C151.934 23.4868 153.554 24.9197 155.554 24.9197L167.207 24.9215L151.934 11.0049Z" fill="#EBEBEB"/>
<path d="M152.092 22.659C152.092 22.659 151.939 25.2575 155.285 26.1122C155.411 26.1447 155.539 26.1679 155.669 26.1883C157.19 26.4286 167.206 28.0035 167.206 27.8002C167.206 27.5803 167.206 24.9215 167.206 24.9215H155.553C155.553 24.9215 152.644 24.8334 152.092 22.659Z" fill="#E0E0E0"/>
<path d="M0.551147 384.194L55.9582 351.117L324.414 349.982L336.702 384.691L0.551147 384.194Z" fill="#455A64"/>
<path d="M336.003 397.746L0 397.53V383.546L336.151 384.475L336.003 397.746Z" fill="#455A64"/>
<path d="M327.762 384.396C327.762 384.529 255.206 384.607 165.725 384.569C76.212 384.531 3.67188 384.393 3.67188 384.259C3.67188 384.126 76.212 384.048 165.725 384.086C255.206 384.124 327.762 384.262 327.762 384.396Z" fill="#263238"/>
<path d="M244.178 77.5839H191.426C187.781 77.5839 184.826 74.9715 184.826 71.7485V7.19726C184.826 3.97425 187.781 1.36188 191.426 1.36188H224.881L250.778 24.9596V71.7485C250.778 74.9715 247.823 77.5839 244.178 77.5839Z" fill="#F57658"/>
<g opacity="0.2">
<path d="M243.978 77.5838H191.627C187.871 77.5838 184.826 74.8917 184.826 71.5712V55.6065C184.826 54.9717 185.409 54.4567 186.126 54.4567H249.478C250.196 54.4567 250.778 54.9717 250.778 55.6065V71.5712C250.778 74.8917 247.734 77.5838 243.978 77.5838Z" fill="black"/>
</g>
<g opacity="0.2">
<path d="M224.882 1.36188V19.5288C224.882 22.5263 227.63 24.9559 231.02 24.9559L250.778 24.9586L224.882 1.36188Z" fill="white"/>
</g>
<g opacity="0.2">
<path d="M225.152 21.1231C225.152 21.1231 224.892 25.5293 230.566 26.978C230.779 27.0327 230.998 27.0726 231.216 27.107C233.796 27.5144 250.779 30.1852 250.779 29.8409C250.779 29.4679 250.779 24.9586 250.779 24.9586H231.021C231.021 24.9586 226.086 24.8101 225.152 21.1231Z" fill="black"/>
</g>
<path d="M203.706 64.5341C203.706 61.8001 206.08 59.8448 209.274 59.8448C211.047 59.8448 212.527 60.4146 213.494 61.4512L211.97 62.6947C211.281 61.995 210.416 61.6321 209.392 61.6321C207.472 61.6321 206.109 62.8237 206.109 64.5341C206.109 66.2444 207.472 67.436 209.392 67.436C210.417 67.436 211.282 67.0731 211.97 66.3604L213.494 67.6039C212.527 68.6535 211.047 69.2233 209.26 69.2233C206.081 69.2233 203.706 67.268 203.706 64.5341Z" fill="#FAFAFA"/>
<path d="M214.192 68.1737L214.998 66.5933C215.863 67.1501 217.151 67.539 218.384 67.539C219.79 67.539 220.361 67.1241 220.361 66.5673C220.361 64.87 214.398 66.0365 214.398 62.6678C214.398 61.1263 215.804 59.8429 218.721 59.8429C220.011 59.8429 221.328 60.1148 222.281 60.6466L221.549 62.24C220.597 61.7602 219.615 61.5272 218.707 61.5272C217.3 61.5272 216.758 61.994 216.758 62.5629C216.758 64.2343 222.721 63.0817 222.721 66.4114C222.721 67.9269 221.3 69.2215 218.369 69.2215C216.743 69.2224 215.101 68.7955 214.192 68.1737Z" fill="#FAFAFA"/>
<path d="M223.536 68.1737L224.342 66.5933C225.207 67.1501 226.497 67.539 227.728 67.539C229.135 67.539 229.706 67.1241 229.706 66.5673C229.706 64.87 223.741 66.0365 223.741 62.6678C223.741 61.1263 225.148 59.8429 228.064 59.8429C229.354 59.8429 230.672 60.1148 231.625 60.6466L230.893 62.24C229.941 61.7602 228.958 61.5272 228.05 61.5272C226.644 61.5272 226.102 61.994 226.102 62.5629C226.102 64.2343 232.066 63.0817 232.066 66.4114C232.066 67.9269 230.645 69.2215 227.714 69.2215C226.086 69.2224 224.446 68.7955 223.536 68.1737Z" fill="#FAFAFA"/>
<path d="M207.056 35.1854C208.141 35.4768 208.635 36.081 208.635 37.5185V40.851C208.635 41.83 209.201 42.3924 210.356 42.3924H210.78V44.9333H209.414C206.467 44.9333 204.96 43.5998 204.96 41.2045V37.4349C204.96 36.7686 204.56 36.4549 203.924 36.4549H203.146V33.914H203.924C204.56 33.914 204.96 33.6013 204.96 32.934V29.1635C204.96 26.7683 206.469 25.4347 209.414 25.4347H210.78V27.9756H210.356C209.202 27.9756 208.635 28.538 208.635 29.518V32.8514C208.635 34.2899 208.14 34.8931 207.056 35.1854Z" fill="#FAFAFA"/>
<path d="M232.46 33.9152V36.4561H231.682C231.046 36.4561 230.646 36.7688 230.646 37.4361V41.2057C230.646 43.6019 229.138 44.9345 226.192 44.9345H224.827V42.3936H225.251C226.404 42.3936 226.971 41.8303 226.971 40.8521V37.5196C226.971 36.0821 227.466 35.478 228.55 35.1866C227.466 34.8952 226.971 34.291 226.971 32.8535V29.5201C226.971 28.5401 226.405 27.9777 225.251 27.9777H224.827V25.4368H226.192C229.139 25.4368 230.646 26.7704 230.646 29.1656V32.9361C230.646 33.6024 231.046 33.9161 231.682 33.9161L232.46 33.9152Z" fill="#FAFAFA"/>
<path d="M318.048 124.445H264.5C260.8 124.445 257.8 121.793 257.8 118.522V52.995C257.8 49.7237 260.8 47.0715 264.5 47.0715H298.461L324.749 71.0255V118.522C324.748 121.793 321.748 124.445 318.048 124.445Z" fill="#F57658"/>
<g opacity="0.2">
<path d="M317.508 124.445H265.038C261.04 124.445 257.799 121.579 257.799 118.045V100.968H324.747V118.045C324.748 121.579 321.507 124.445 317.508 124.445Z" fill="black"/>
</g>
<g opacity="0.2">
<path d="M298.459 47.0715V65.5131C298.459 68.5551 301.249 71.0218 304.69 71.0227L324.748 71.0255L298.459 47.0715Z" fill="white"/>
</g>
<g opacity="0.2">
<path d="M298.733 67.1316C298.733 67.1316 298.47 71.6046 304.23 73.0746C304.446 73.1294 304.667 73.1711 304.889 73.2064C307.508 73.6203 324.748 76.331 324.748 75.9812C324.748 75.6025 324.748 71.0255 324.748 71.0255H304.69C304.69 71.0255 299.682 70.8743 298.733 67.1316Z" fill="black"/>
</g>
<path d="M285.294 81.5827L277.258 84.1858L285.294 86.7675V89.4347L273.806 85.5732V82.7993L285.294 78.9369V81.5827Z" fill="#FAFAFA"/>
<path d="M293.93 73.688H297.285L289.32 93.7871H285.965L293.93 73.688Z" fill="#FAFAFA"/>
<path d="M309.204 82.7984V85.5723L297.716 89.4337V86.7666L305.753 84.1849L297.716 81.5818V78.936L309.204 82.7984Z" fill="#FAFAFA"/>
<path d="M282.56 109.705V117.66H280.478V114.398H276.391V117.66H274.309V109.705H276.391V112.842H280.478V109.705H282.56Z" fill="#FAFAFA"/>
<path d="M286.556 111.205H283.677V109.705H291.518V111.205H288.639V117.66H286.556V111.205Z" fill="#FAFAFA"/>
<path d="M300.822 117.66L300.81 112.888L298.161 116.82H297.223L294.588 112.99V117.66H292.635V109.705H294.357L297.726 114.649L301.042 109.705H302.752L302.777 117.66H300.822Z" fill="#FAFAFA"/>
<path d="M304.908 109.705H306.989V116.161H311.501V117.661H304.907V109.705H304.908Z" fill="#FAFAFA"/>
<path d="M129.491 219.061H32.2665C30.4935 219.061 29.0565 217.79 29.0565 216.223V74.204C29.0565 72.6366 30.4935 71.3662 32.2665 71.3662H129.49C131.263 71.3662 132.7 72.6366 132.7 74.204V216.223C132.7 217.79 131.263 219.061 129.491 219.061Z" fill="white"/>
<path d="M132.7 87.8691H29.0565V74.7144C29.0565 72.8658 30.7518 71.3671 32.8428 71.3671H129.056C131.068 71.3671 132.7 72.8092 132.7 74.5892V87.8691Z" fill="#E0E0E0"/>
<path d="M129.224 219.061C129.216 219.033 129.712 219.101 130.56 218.798C130.974 218.64 131.46 218.361 131.888 217.903C132.3 217.443 132.646 216.786 132.645 216.005C132.633 212.843 132.616 208.195 132.594 202.213C132.573 190.228 132.544 172.899 132.507 151.49C132.49 130.072 132.47 104.573 132.448 76.2596L132.447 74.9307C132.449 74.475 132.458 74.0667 132.323 73.6686C132.081 72.8696 131.404 72.1875 130.549 71.8459C130.121 71.6724 129.655 71.587 129.176 71.5917L127.65 71.5926C126.631 71.5926 125.608 71.5935 124.584 71.5935C120.484 71.5945 116.336 71.5963 112.146 71.5972C103.763 71.5991 95.2051 71.6009 86.4926 71.6037C69.0667 71.6056 51.0245 71.6065 32.5457 71.6084C31.4729 71.6009 30.4317 72.0993 29.8522 72.8918C29.5678 73.2862 29.3788 73.7391 29.3431 74.2078C29.3158 74.6764 29.3358 75.2128 29.3295 75.7121C29.3295 77.7426 29.3295 79.7666 29.3295 81.7841C29.3295 85.8191 29.3284 89.8273 29.3284 93.8057C29.3274 101.763 29.3253 109.605 29.3242 117.31C29.319 132.719 29.3137 147.583 29.3085 161.742C29.3001 175.901 29.2917 189.356 29.2833 201.949C29.2812 205.097 29.278 208.191 29.2759 211.228C29.2749 212.747 29.2728 214.252 29.2717 215.742C29.1342 217.188 30.3067 218.539 31.854 218.81C32.5972 218.927 33.4663 218.853 34.2714 218.875C35.0891 218.876 35.9037 218.876 36.713 218.877C38.3316 218.878 39.9345 218.88 41.5185 218.881C44.6875 218.883 47.7883 218.886 50.8157 218.889C75.0331 218.921 94.6309 218.947 108.187 218.966C114.953 218.985 120.209 219.001 123.784 219.011C125.56 219.022 126.916 219.03 127.84 219.035C128.755 219.044 129.224 219.061 129.224 219.061C129.224 219.061 128.755 219.077 127.841 219.086C126.917 219.091 125.56 219.099 123.785 219.11C120.21 219.12 114.954 219.136 108.188 219.155C94.632 219.174 75.0331 219.2 50.8167 219.232C47.7883 219.235 44.6886 219.238 41.5196 219.241C39.9345 219.242 38.3327 219.243 36.7141 219.244C35.9048 219.245 35.0902 219.245 34.2725 219.246C33.4464 219.221 32.656 219.307 31.7669 219.177C30.9072 219.018 30.1188 218.571 29.5867 217.945C29.0471 217.329 28.7899 216.503 28.8424 215.743C28.8414 214.252 28.8403 212.748 28.8382 211.229C28.8361 208.192 28.833 205.098 28.8309 201.95C28.8235 189.357 28.8151 175.902 28.8057 161.743C28.8004 147.584 28.7952 132.72 28.7899 117.311C28.7889 109.605 28.7868 101.764 28.7857 93.8066C28.7857 89.8273 28.7847 85.8191 28.7847 81.785C28.7847 79.7675 28.7847 77.7435 28.7847 75.713C28.792 75.197 28.77 74.7163 28.7994 74.1697C28.8424 73.6222 29.0629 73.0895 29.3967 72.6283C30.0706 71.7012 31.2977 71.1156 32.5468 71.1258C51.0256 71.1277 69.0677 71.1295 86.4937 71.1304C95.2061 71.1323 103.765 71.1342 112.147 71.136C116.339 71.1369 120.485 71.1388 124.585 71.1397C125.609 71.1397 126.632 71.1406 127.651 71.1406H129.177C129.716 71.136 130.267 71.2344 130.759 71.4358C131.749 71.832 132.53 72.6208 132.81 73.547C132.966 74.0073 132.955 74.501 132.952 74.9298L132.951 76.2587C132.929 104.572 132.909 130.071 132.892 151.489C132.856 172.899 132.826 190.227 132.805 202.212C132.782 208.195 132.765 212.843 132.753 216.005C132.744 216.812 132.379 217.484 131.95 217.95C131.506 218.413 131.005 218.691 130.58 218.843C130.151 219 129.8 219.031 129.572 219.057C129.341 219.064 129.224 219.061 129.224 219.061Z" fill="#263238"/>
<path d="M44.3338 80.9044C44.3338 82.3975 42.965 83.6077 41.276 83.6077C39.5871 83.6077 38.2183 82.3975 38.2183 80.9044C38.2183 79.4112 39.5871 78.201 41.276 78.201C42.965 78.201 44.3338 79.4112 44.3338 80.9044Z" fill="white"/>
<path d="M50.6834 83.6077C52.3721 83.6077 53.7411 82.3974 53.7411 80.9044C53.7411 79.4114 52.3721 78.201 50.6834 78.201C48.9946 78.201 47.6256 79.4114 47.6256 80.9044C47.6256 82.3974 48.9946 83.6077 50.6834 83.6077Z" fill="white"/>
<path d="M60.0918 83.6077C61.7806 83.6077 63.1496 82.3974 63.1496 80.9044C63.1496 79.4114 61.7806 78.201 60.0918 78.201C58.4031 78.201 57.0341 79.4114 57.0341 80.9044C57.0341 82.3974 58.4031 83.6077 60.0918 83.6077Z" fill="white"/>
<path d="M74.1556 110.246H55.069C53.9248 110.246 52.9979 109.426 52.9979 108.415C52.9979 107.403 53.9248 106.584 55.069 106.584H74.1556C75.2997 106.584 76.2266 107.403 76.2266 108.415C76.2266 109.426 75.2997 110.246 74.1556 110.246Z" fill="#263238"/>
<path d="M74.1556 119.829H55.069C53.9248 119.829 52.9979 119.01 52.9979 117.998C52.9979 116.987 53.9248 116.167 55.069 116.167H74.1556C75.2997 116.167 76.2266 116.987 76.2266 117.998C76.2266 119.01 75.2997 119.829 74.1556 119.829Z" fill="#E0E0E0"/>
<path d="M74.7025 146.08H55.6149C54.4707 146.08 53.5438 145.261 53.5438 144.249C53.5438 143.238 54.4707 142.418 55.6149 142.418H74.7014C75.8456 142.418 76.7725 143.238 76.7725 144.249C76.7725 145.261 75.8456 146.08 74.7025 146.08Z" fill="#E0E0E0"/>
<path d="M74.1556 129.734H55.069C53.9248 129.734 52.9979 128.915 52.9979 127.903C52.9979 126.891 53.9248 126.072 55.069 126.072H74.1556C75.2997 126.072 76.2266 126.891 76.2266 127.903C76.2266 128.914 75.2997 129.734 74.1556 129.734Z" fill="#F57658"/>
<path d="M74.1556 184.961H55.069C53.9248 184.961 52.9979 184.142 52.9979 183.13C52.9979 182.12 53.9248 181.299 55.069 181.299H74.1556C75.2997 181.299 76.2266 182.119 76.2266 183.13C76.2266 184.142 75.2997 184.961 74.1556 184.961Z" fill="#F57658"/>
<path d="M104.734 110.246H85.6476C84.5034 110.246 83.5765 109.426 83.5765 108.415C83.5765 107.403 84.5034 106.584 85.6476 106.584H104.734C105.878 106.584 106.805 107.403 106.805 108.415C106.805 109.426 105.878 110.246 104.734 110.246Z" fill="#455A64"/>
<path d="M125.403 119.829H85.4702C84.4247 119.829 83.5765 119.01 83.5765 117.998C83.5765 116.987 84.4236 116.167 85.4702 116.167H125.403C126.448 116.167 127.295 116.987 127.295 117.998C127.295 119.01 126.448 119.829 125.403 119.829Z" fill="#263238"/>
<path d="M124.328 129.734H84.1204C83.0455 129.734 82.1732 128.915 82.1732 127.903C82.1732 126.891 83.0445 126.072 84.1204 126.072H124.328C125.403 126.072 126.275 126.891 126.275 127.903C126.275 128.914 125.404 129.734 124.328 129.734Z" fill="#E0E0E0"/>
<path d="M95.2828 137.743H55.0743C53.9994 137.743 53.1271 136.923 53.1271 135.912C53.1271 134.901 53.9983 134.081 55.0743 134.081H95.2817C96.3566 134.081 97.2289 134.9 97.2289 135.912C97.2289 136.922 96.3577 137.743 95.2828 137.743Z" fill="#E0E0E0"/>
<path d="M45.7132 108.416C45.7132 109.443 44.7716 110.275 43.6096 110.275C42.4476 110.275 41.506 109.443 41.506 108.416C41.506 107.388 42.4476 106.556 43.6096 106.556C44.7716 106.556 45.7132 107.388 45.7132 108.416Z" fill="#455A64"/>
<path d="M45.7132 99.2439C45.7132 100.271 44.7716 101.104 43.6096 101.104C42.4476 101.104 41.506 100.271 41.506 99.2439C41.506 98.2166 42.4476 97.3841 43.6096 97.3841C44.7716 97.3841 45.7132 98.2166 45.7132 99.2439Z" fill="#455A64"/>
<path d="M45.7132 117.969C45.7132 118.997 44.7716 119.829 43.6096 119.829C42.4476 119.829 41.506 118.997 41.506 117.969C41.506 116.942 42.4476 116.11 43.6096 116.11C44.7716 116.11 45.7132 116.943 45.7132 117.969Z" fill="#455A64"/>
<path d="M45.7132 127.903C45.7132 128.93 44.7716 129.763 43.6096 129.763C42.4476 129.763 41.506 128.93 41.506 127.903C41.506 126.876 42.4476 126.043 43.6096 126.043C44.7716 126.043 45.7132 126.876 45.7132 127.903Z" fill="#455A64"/>
<path d="M74.7025 172.883H55.6149C54.4707 172.883 53.5438 172.064 53.5438 171.052C53.5438 170.041 54.4707 169.221 55.6149 169.221H74.7014C75.8456 169.221 76.7725 170.041 76.7725 171.052C76.7725 172.063 75.8456 172.883 74.7025 172.883Z" fill="#E0E0E0"/>
<path d="M74.1556 156.536H55.069C53.9248 156.536 52.9979 155.717 52.9979 154.705C52.9979 153.695 53.9248 152.874 55.069 152.874H74.1556C75.2997 152.874 76.2266 153.694 76.2266 154.705C76.2266 155.716 75.2997 156.536 74.1556 156.536Z" fill="#F57658"/>
<path d="M124.328 156.536H84.1204C83.0455 156.536 82.1732 155.717 82.1732 154.705C82.1732 153.695 83.0445 152.874 84.1204 152.874H124.328C125.403 152.874 126.275 153.694 126.275 154.705C126.275 155.716 125.404 156.536 124.328 156.536Z" fill="#E0E0E0"/>
<path d="M95.2828 164.545H55.0743C53.9994 164.545 53.1271 163.725 53.1271 162.714C53.1271 161.702 53.9983 160.883 55.0743 160.883H95.2817C96.3566 160.883 97.2289 161.702 97.2289 162.714C97.2289 163.725 96.3577 164.545 95.2828 164.545Z" fill="#E0E0E0"/>
<path d="M45.7132 154.705C45.7132 155.732 44.7716 156.565 43.6096 156.565C42.4476 156.565 41.506 155.732 41.506 154.705C41.506 153.678 42.4476 152.845 43.6096 152.845C44.7716 152.845 45.7132 153.678 45.7132 154.705Z" fill="#455A64"/>
<path d="M66.0667 101.455H54.1169C53.5616 101.455 53.1113 101.057 53.1113 100.566V98.8133C53.1113 98.3224 53.5616 97.9242 54.1169 97.9242H66.0667C66.6219 97.9242 67.0723 98.3224 67.0723 98.8133V100.566C67.0723 101.057 66.6219 101.455 66.0667 101.455Z" fill="#455A64"/>
<path d="M74.1557 194.72H55.0691C53.9249 194.72 52.998 193.901 52.998 192.889C52.998 191.879 53.9249 191.058 55.0691 191.058H74.1557C75.2998 191.058 76.2267 191.878 76.2267 192.889C76.2267 193.901 75.2998 194.72 74.1557 194.72Z" fill="#263238"/>
<path d="M104.734 194.72H85.6477C84.5035 194.72 83.5767 193.901 83.5767 192.889C83.5767 191.879 84.5035 191.058 85.6477 191.058H104.734C105.878 191.058 106.805 191.878 106.805 192.889C106.805 193.901 105.878 194.72 104.734 194.72Z" fill="#455A64"/>
<path d="M45.7132 192.889C45.7132 193.917 44.7716 194.749 43.6096 194.749C42.4476 194.749 41.506 193.917 41.506 192.889C41.506 191.862 42.4476 191.03 43.6096 191.03C44.7716 191.03 45.7132 191.862 45.7132 192.889Z" fill="#455A64"/>
<path d="M45.7132 201.709C45.7132 202.737 44.7716 203.569 43.6096 203.569C42.4476 203.569 41.506 202.737 41.506 201.709C41.506 200.682 42.4476 199.85 43.6096 199.85C44.7716 199.85 45.7132 200.682 45.7132 201.709Z" fill="#455A64"/>
<path d="M66.0667 203.92H54.1169C53.5616 203.92 53.1113 203.522 53.1113 203.031V201.278C53.1113 200.787 53.5616 200.389 54.1169 200.389H66.0667C66.6219 200.389 67.0723 200.787 67.0723 201.278V203.031C67.0723 203.522 66.6219 203.92 66.0667 203.92Z" fill="#455A64"/>
<path d="M328.934 196.264H139.622V302.728H328.934V196.264Z" fill="white"/>
<path d="M173.718 196.264H139.622V302.728H173.718V196.264Z" fill="#EBEBEB"/>
<path d="M154.606 207.754C154.786 207.658 154.977 207.585 155.174 207.535L155.291 207.039L156.24 207.024L156.376 207.517C156.574 207.561 156.769 207.627 156.952 207.717L157.432 207.439L158.115 208.022L157.818 208.455C157.926 208.614 158.009 208.783 158.065 208.957L158.627 209.06L158.643 209.899L158.086 210.02C158.037 210.195 157.961 210.367 157.859 210.529L158.174 210.953L157.515 211.557L157.025 211.295C156.845 211.39 156.654 211.464 156.457 211.513L156.34 212.009L155.391 212.024L155.255 211.532C155.056 211.488 154.862 211.421 154.679 211.331L154.199 211.609L153.516 211.027L153.813 210.593C153.705 210.435 153.622 210.266 153.566 210.091L153.004 209.988L152.988 209.149L153.545 209.029C153.594 208.852 153.67 208.682 153.772 208.519L153.458 208.095L154.117 207.491L154.606 207.754ZM155.112 208.872C154.722 209.23 154.733 209.8 155.137 210.145C155.543 210.49 156.187 210.48 156.578 210.123C156.968 209.765 156.956 209.195 156.552 208.85C156.148 208.503 155.504 208.514 155.112 208.872Z" fill="#E0E0E0"/>
<path d="M162.483 231.273H147.619C146.776 231.273 146.092 230.669 146.092 229.923C146.092 229.177 146.777 228.573 147.619 228.573H162.483C163.327 228.573 164.01 229.178 164.01 229.923C164.01 230.668 163.327 231.273 162.483 231.273Z" fill="#E0E0E0"/>
<path d="M162.483 224.394H147.619C146.776 224.394 146.092 223.79 146.092 223.044C146.092 222.297 146.777 221.693 147.619 221.693H162.483C163.327 221.693 164.01 222.298 164.01 223.044C164.01 223.789 163.327 224.394 162.483 224.394Z" fill="#E0E0E0"/>
<path d="M162.483 218.1H147.619C146.776 218.1 146.092 217.496 146.092 216.75C146.092 216.004 146.777 215.4 147.619 215.4H162.483C163.327 215.4 164.01 216.004 164.01 216.75C164.01 217.496 163.327 218.1 162.483 218.1Z" fill="#E0E0E0"/>
<path d="M202.418 211.992H188.339C187.495 211.992 186.812 211.387 186.812 210.642C186.812 209.895 187.496 209.291 188.339 209.291H202.418C203.262 209.291 203.945 209.895 203.945 210.642C203.945 211.388 203.262 211.992 202.418 211.992Z" fill="#263238"/>
<path d="M202.418 219.061H188.339C187.495 219.061 186.812 218.456 186.812 217.71C186.812 216.964 187.496 216.36 188.339 216.36H202.418C203.262 216.36 203.945 216.964 203.945 217.71C203.945 218.456 203.262 219.061 202.418 219.061Z" fill="#E0E0E0"/>
<path d="M202.418 226.366H188.339C187.495 226.366 186.812 225.762 186.812 225.016C186.812 224.27 187.496 223.665 188.339 223.665H202.418C203.262 223.665 203.945 224.27 203.945 225.016C203.945 225.761 203.262 226.366 202.418 226.366Z" fill="#F57658"/>
<path d="M196.412 240.489H188.339C187.495 240.489 186.812 239.885 186.812 239.139C186.812 238.393 187.496 237.789 188.339 237.789H196.412C197.256 237.789 197.94 238.393 197.94 239.139C197.94 239.884 197.256 240.489 196.412 240.489Z" fill="#263238"/>
<path d="M196.412 247.811H188.339C187.495 247.811 186.812 247.206 186.812 246.46C186.812 245.714 187.496 245.11 188.339 245.11H196.412C197.256 245.11 197.94 245.714 197.94 246.46C197.94 247.206 197.256 247.811 196.412 247.811Z" fill="#263238"/>
<path d="M220.405 247.811H205.602C204.758 247.811 204.075 247.206 204.075 246.46C204.075 245.714 204.759 245.11 205.602 245.11H220.405C221.249 245.11 221.932 245.714 221.932 246.46C221.932 247.206 221.248 247.811 220.405 247.811Z" fill="#E0E0E0"/>
<path d="M212.033 254.321H197.23C196.386 254.321 195.703 253.717 195.703 252.97C195.703 252.224 196.386 251.62 197.23 251.62H212.033C212.877 251.62 213.56 252.224 213.56 252.97C213.56 253.716 212.876 254.321 212.033 254.321Z" fill="#F57658"/>
<path d="M215.312 261.747H205.145C204.568 261.747 204.102 261.334 204.102 260.825V259.969C204.102 259.459 204.57 259.047 205.145 259.047H215.312C215.888 259.047 216.354 259.46 216.354 259.969V260.825C216.354 261.334 215.887 261.747 215.312 261.747Z" fill="#F57658"/>
<path d="M214.827 276.3H205.63C204.786 276.3 204.102 275.695 204.102 274.95C204.102 274.203 204.786 273.599 205.63 273.599H214.827C215.671 273.599 216.354 274.203 216.354 274.95C216.354 275.695 215.671 276.3 214.827 276.3Z" fill="#F57658"/>
<path d="M214.827 291.671H205.63C204.786 291.671 204.102 291.066 204.102 290.32C204.102 289.574 204.786 288.97 205.63 288.97H214.827C215.671 288.97 216.354 289.575 216.354 290.32C216.354 291.067 215.671 291.671 214.827 291.671Z" fill="#F57658"/>
<path d="M237.439 291.671H221.313C220.469 291.671 219.786 291.066 219.786 290.32C219.786 289.574 220.469 288.97 221.313 288.97H237.439C238.283 288.97 238.966 289.575 238.966 290.32C238.966 291.067 238.281 291.671 237.439 291.671Z" fill="#455A64"/>
<path d="M248.725 291.671H246.402C245.558 291.671 244.875 291.066 244.875 290.32C244.875 289.574 245.559 288.97 246.402 288.97H248.725C249.569 288.97 250.252 289.575 250.252 290.32C250.252 291.067 249.569 291.671 248.725 291.671Z" fill="#E0E0E0"/>
<path d="M236.472 276.3H222.845C222.001 276.3 221.317 275.695 221.317 274.95C221.317 274.203 222.002 273.599 222.845 273.599H236.472C237.316 273.599 237.999 274.203 237.999 274.95C237.999 275.695 237.316 276.3 236.472 276.3Z" fill="#E0E0E0"/>
<path d="M266.355 283.048H222.845C222.001 283.048 221.317 282.442 221.317 281.697C221.317 280.951 222.002 280.347 222.845 280.347H266.355C267.198 280.347 267.882 280.951 267.882 281.697C267.882 282.442 267.198 283.048 266.355 283.048Z" fill="#E0E0E0"/>
<path d="M271.38 276.3H243.601C242.757 276.3 242.074 275.695 242.074 274.95C242.074 274.203 242.757 273.599 243.601 273.599H271.38C272.224 273.599 272.908 274.203 272.908 274.95C272.908 275.695 272.224 276.3 271.38 276.3Z" fill="#455A64"/>
<path d="M233.877 261.747H221.399C220.823 261.747 220.357 261.334 220.357 260.825V259.969C220.357 259.459 220.824 259.047 221.399 259.047H233.877C234.453 259.047 234.919 259.46 234.919 259.969V260.825C234.919 261.334 234.452 261.747 233.877 261.747Z" fill="#455A64"/>
<path d="M243.837 261.747H240.008C239.432 261.747 238.966 261.334 238.966 260.825V259.969C238.966 259.459 239.433 259.047 240.008 259.047H243.837C244.414 259.047 244.88 259.46 244.88 259.969V260.825C244.881 261.334 244.414 261.747 243.837 261.747Z" fill="#E0E0E0"/>
<path d="M265.78 261.747H250.421C249.845 261.747 249.379 261.334 249.379 260.825V259.969C249.379 259.459 249.846 259.047 250.421 259.047H265.78C266.357 259.047 266.823 259.46 266.823 259.969V260.825C266.824 261.334 266.357 261.747 265.78 261.747Z" fill="#E0E0E0"/>
<path d="M222.06 254.321H218.761C217.917 254.321 217.234 253.717 217.234 252.97C217.234 252.224 217.919 251.62 218.761 251.62H222.06C222.904 251.62 223.587 252.224 223.587 252.97C223.587 253.716 222.902 254.321 222.06 254.321Z" fill="#263238"/>
<path d="M250.004 254.321H229.002C228.158 254.321 227.475 253.717 227.475 252.97C227.475 252.224 228.159 251.62 229.002 251.62H250.004C250.848 251.62 251.532 252.224 251.532 252.97C251.532 253.716 250.848 254.321 250.004 254.321Z" fill="#E0E0E0"/>
<path d="M224.972 211.992H210.894C210.05 211.992 209.367 211.387 209.367 210.642C209.367 209.895 210.051 209.291 210.894 209.291H224.972C225.816 209.291 226.5 209.895 226.5 210.642C226.5 211.388 225.816 211.992 224.972 211.992Z" fill="#455A64"/>
<path d="M243.112 219.061H210.894C210.05 219.061 209.367 218.456 209.367 217.71C209.367 216.964 210.051 216.36 210.894 216.36H243.112C243.956 216.36 244.639 216.964 244.639 217.71C244.639 218.456 243.956 219.061 243.112 219.061Z" fill="#263238"/>
<path d="M277.799 226.366H210.894C210.05 226.366 209.367 225.762 209.367 225.016C209.367 224.27 210.051 223.665 210.894 223.665H277.799C278.643 223.665 279.327 224.27 279.327 225.016C279.327 225.761 278.643 226.366 277.799 226.366Z" fill="#E0E0E0"/>
<path d="M242.441 231.511H210.895C210.051 231.511 209.368 230.907 209.368 230.161C209.368 229.414 210.052 228.81 210.895 228.81H242.441C243.285 228.81 243.969 229.414 243.969 230.161C243.969 230.907 243.284 231.511 242.441 231.511Z" fill="#E0E0E0"/>
<path d="M235.988 240.489H204.441C203.597 240.489 202.914 239.885 202.914 239.139C202.914 238.393 203.598 237.789 204.441 237.789H235.988C236.832 237.789 237.515 238.393 237.515 239.139C237.515 239.884 236.831 240.489 235.988 240.489Z" fill="#455A64"/>
<path d="M253.648 240.489H243.073C242.229 240.489 241.546 239.885 241.546 239.139C241.546 238.393 242.229 237.789 243.073 237.789H253.648C254.492 237.789 255.175 238.393 255.175 239.139C255.175 239.884 254.492 240.489 253.648 240.489Z" fill="#F57658"/>
<path d="M280.683 240.446H260.708C259.864 240.446 259.181 239.842 259.181 239.096C259.181 238.349 259.865 237.745 260.708 237.745H280.683C281.527 237.745 282.21 238.349 282.21 239.096C282.21 239.841 281.527 240.446 280.683 240.446Z" fill="#263238"/>
<path d="M307.866 240.446H287.891C287.047 240.446 286.364 239.842 286.364 239.096C286.364 238.349 287.047 237.745 287.891 237.745H307.866C308.71 237.745 309.393 238.349 309.393 239.096C309.393 239.841 308.71 240.446 307.866 240.446Z" fill="#E0E0E0"/>
<path d="M156.046 238.555H147.62C146.776 238.555 146.093 237.95 146.093 237.205C146.093 236.459 146.778 235.855 147.62 235.855H156.046C156.89 235.855 157.574 236.459 157.574 237.205C157.574 237.951 156.89 238.555 156.046 238.555Z" fill="#E0E0E0"/>
<path d="M153.524 260.403H147.619C146.776 260.403 146.092 259.798 146.092 259.053C146.092 258.307 146.777 257.702 147.619 257.702H153.524C154.368 257.702 155.051 258.307 155.051 259.053C155.052 259.799 154.368 260.403 153.524 260.403Z" fill="#E0E0E0"/>
<path d="M164.01 245.839H147.619C146.776 245.839 146.092 245.233 146.092 244.488C146.092 243.742 146.777 243.138 147.619 243.138H164.01C164.854 243.138 165.538 243.743 165.538 244.488C165.538 245.233 164.854 245.839 164.01 245.839Z" fill="#E0E0E0"/>
<path d="M161.135 253.121H147.62C146.776 253.121 146.093 252.517 146.093 251.77C146.093 251.024 146.778 250.42 147.62 250.42H161.135C161.979 250.42 162.663 251.024 162.663 251.77C162.663 252.516 161.978 253.121 161.135 253.121Z" fill="#E0E0E0"/>
<path d="M181.438 210.642C181.438 211.399 180.744 212.013 179.887 212.013C179.03 212.013 178.336 211.399 178.336 210.642C178.336 209.884 179.03 209.27 179.887 209.27C180.744 209.27 181.438 209.884 181.438 210.642Z" fill="#455A64"/>
<path d="M179.887 204.809C180.744 204.809 181.438 204.195 181.438 203.437C181.438 202.68 180.744 202.066 179.887 202.066C179.03 202.066 178.336 202.68 178.336 203.437C178.336 204.195 179.03 204.809 179.887 204.809Z" fill="#455A64"/>
<path d="M179.887 219.061C180.744 219.061 181.438 218.446 181.438 217.689C181.438 216.931 180.744 216.317 179.887 216.317C179.03 216.317 178.336 216.931 178.336 217.689C178.336 218.446 179.03 219.061 179.887 219.061Z" fill="#455A64"/>
<path d="M179.887 226.387C180.744 226.387 181.438 225.773 181.438 225.016C181.438 224.258 180.744 223.644 179.887 223.644C179.03 223.644 178.336 224.258 178.336 225.016C178.336 225.773 179.03 226.387 179.887 226.387Z" fill="#455A64"/>
<path d="M179.887 233.713C180.744 233.713 181.438 233.099 181.438 232.341C181.438 231.584 180.744 230.97 179.887 230.97C179.03 230.97 178.336 231.584 178.336 232.341C178.336 233.099 179.03 233.713 179.887 233.713Z" fill="#455A64"/>
<path d="M181.438 239.668C181.438 240.425 180.744 241.04 179.887 241.04C179.03 241.04 178.336 240.425 178.336 239.668C178.336 238.911 179.03 238.297 179.887 238.297C180.744 238.297 181.438 238.911 181.438 239.668Z" fill="#455A64"/>
<path d="M179.887 248.366C180.744 248.366 181.438 247.751 181.438 246.994C181.438 246.236 180.744 245.622 179.887 245.622C179.03 245.622 178.336 246.236 178.336 246.994C178.336 247.751 179.03 248.366 179.887 248.366Z" fill="#455A64"/>
<path d="M179.887 255.692C180.744 255.692 181.438 255.078 181.438 254.321C181.438 253.563 180.744 252.949 179.887 252.949C179.03 252.949 178.336 253.563 178.336 254.321C178.336 255.078 179.03 255.692 179.887 255.692Z" fill="#455A64"/>
<path d="M181.438 261.646C181.438 262.404 180.744 263.018 179.887 263.018C179.03 263.018 178.336 262.404 178.336 261.646C178.336 260.889 179.03 260.275 179.887 260.275C180.744 260.275 181.438 260.889 181.438 261.646Z" fill="#455A64"/>
<path d="M181.438 268.973C181.438 269.73 180.744 270.345 179.887 270.345C179.03 270.345 178.336 269.73 178.336 268.973C178.336 268.216 179.03 267.602 179.887 267.602C180.744 267.602 181.438 268.216 181.438 268.973Z" fill="#455A64"/>
<path d="M179.887 277.671C180.744 277.671 181.438 277.057 181.438 276.3C181.438 275.542 180.744 274.928 179.887 274.928C179.03 274.928 178.336 275.542 178.336 276.3C178.336 277.057 179.03 277.671 179.887 277.671Z" fill="#455A64"/>
<path d="M181.438 283.626C181.438 284.383 180.744 284.997 179.887 284.997C179.03 284.997 178.336 284.383 178.336 283.626C178.336 282.868 179.03 282.254 179.887 282.254C180.744 282.254 181.438 282.868 181.438 283.626Z" fill="#455A64"/>
<path d="M179.887 292.324C180.744 292.324 181.438 291.71 181.438 290.952C181.438 290.195 180.744 289.581 179.887 289.581C179.03 289.581 178.336 290.195 178.336 290.952C178.336 291.71 179.03 292.324 179.887 292.324Z" fill="#455A64"/>
<path d="M324.908 181.748H145.293C142.161 181.748 139.622 183.993 139.622 186.762V196.264H328.934V185.307C328.934 183.341 327.132 181.748 324.908 181.748Z" fill="#E0E0E0"/>
<path d="M149.405 191.438C150.65 191.438 151.66 190.546 151.66 189.445C151.66 188.344 150.65 187.451 149.405 187.451C148.16 187.451 147.15 188.344 147.15 189.445C147.15 190.546 148.16 191.438 149.405 191.438Z" fill="white"/>
<path d="M158.599 189.445C158.599 190.546 157.589 191.438 156.344 191.438C155.098 191.438 154.09 190.545 154.09 189.445C154.09 188.344 155.1 187.451 156.344 187.451C157.589 187.45 158.599 188.343 158.599 189.445Z" fill="white"/>
<path d="M165.538 189.445C165.538 190.546 164.528 191.438 163.283 191.438C162.037 191.438 161.028 190.545 161.028 189.445C161.028 188.344 162.038 187.451 163.283 187.451C164.529 187.45 165.538 188.343 165.538 189.445Z" fill="white"/>
<path d="M179.887 301.066L195.889 316.36L210.414 301.066H179.887Z" fill="white"/>
<path d="M323.8 302.727C323.793 302.693 324.394 302.772 325.456 302.455C325.981 302.295 326.614 302.011 327.222 301.516C327.83 301.03 328.406 300.311 328.692 299.384C328.848 298.922 328.885 298.416 328.873 297.875C328.871 297.334 328.869 296.766 328.867 296.168C328.863 294.973 328.859 293.667 328.854 292.253C328.847 289.421 328.839 286.156 328.829 282.481C328.808 267.771 328.779 246.498 328.742 220.213C328.737 213.641 328.73 206.755 328.724 199.58C328.721 195.993 328.719 192.334 328.716 188.605C328.702 187.682 328.744 186.714 328.684 185.817C328.568 184.923 328.145 184.055 327.447 183.385C326.766 182.701 325.822 182.235 324.813 182.039C323.812 181.878 322.686 181.974 321.602 181.947C304.118 181.955 285.438 181.962 265.78 181.969C246.123 181.974 225.488 181.979 204.096 181.983C193.401 181.984 182.515 181.986 171.468 181.987C165.945 181.987 160.382 181.988 154.78 181.988C151.98 181.988 149.171 181.988 146.352 181.988C145.661 181.997 144.914 181.966 144.265 182.01C143.599 182.069 142.949 182.253 142.368 182.546C141.201 183.127 140.326 184.152 140.026 185.309C139.811 186.101 139.925 186.994 139.895 187.866V190.481C139.895 192.223 139.895 193.96 139.895 195.695C139.895 199.163 139.895 202.615 139.894 206.052C139.893 212.923 139.893 219.728 139.892 226.456C139.888 239.913 139.886 253.066 139.883 265.842C139.881 272.23 139.879 278.523 139.878 284.714C139.877 287.809 139.876 290.879 139.875 293.921C139.881 295.437 139.858 296.971 139.888 298.451C139.962 299.889 140.939 301.24 142.339 301.938C143.033 302.298 143.834 302.478 144.632 302.502C145.471 302.503 146.307 302.506 147.142 302.508C148.815 302.509 150.481 302.509 152.137 302.51C155.451 302.511 158.733 302.513 161.979 302.514C168.473 302.516 174.829 302.519 181.037 302.522H181.137L181.205 302.586C186.241 307.273 191.126 311.82 195.86 316.225L195.532 316.234C200.025 311.51 204.334 306.979 208.49 302.61L208.552 302.544H208.649C244.083 302.579 272.867 302.606 292.803 302.625C302.761 302.646 310.507 302.663 315.773 302.674C318.396 302.685 320.4 302.695 321.757 302.7C323.108 302.709 323.8 302.727 323.8 302.727C323.8 302.727 323.108 302.746 321.759 302.754C320.402 302.76 318.398 302.769 315.775 302.78C310.509 302.791 302.763 302.808 292.805 302.829C272.869 302.849 244.085 302.876 208.651 302.91L208.809 302.845C204.66 307.22 200.358 311.755 195.872 316.485L195.713 316.652L195.543 316.494C190.804 312.093 185.912 307.551 180.871 302.869L181.039 302.933C174.83 302.936 168.474 302.939 161.98 302.941C158.734 302.942 155.452 302.944 152.138 302.945C150.481 302.946 148.816 302.946 147.143 302.947C146.304 302.945 145.463 302.943 144.62 302.942C143.742 302.918 142.858 302.719 142.093 302.323C140.549 301.554 139.471 300.066 139.387 298.479C139.354 296.945 139.376 295.45 139.369 293.922C139.368 290.88 139.367 287.81 139.366 284.715C139.364 278.524 139.362 272.231 139.359 265.843C139.357 253.067 139.354 239.914 139.351 226.457C139.35 219.729 139.35 212.924 139.349 206.052C139.349 202.617 139.349 199.164 139.348 195.696C139.348 193.962 139.348 192.224 139.348 190.482V187.867V186.558C139.338 186.126 139.374 185.643 139.493 185.201C139.827 183.911 140.8 182.772 142.097 182.126C142.744 181.801 143.468 181.595 144.208 181.53C144.967 181.481 145.633 181.517 146.35 181.506C149.169 181.506 151.979 181.506 154.778 181.506C160.38 181.506 165.943 181.507 171.466 181.507C182.513 181.508 193.398 181.51 204.094 181.511C225.486 181.516 246.121 181.52 265.778 181.525C285.436 181.532 304.116 181.54 321.6 181.547C322.696 181.578 323.765 181.472 324.903 181.651C326.006 181.865 327.035 182.377 327.776 183.122C328.535 183.853 328.997 184.803 329.122 185.777C329.185 186.758 329.139 187.666 329.152 188.607C329.149 192.335 329.147 195.996 329.144 199.582C329.138 206.757 329.132 213.643 329.126 220.215C329.089 246.5 329.06 267.773 329.039 282.483C329.03 286.158 329.021 289.423 329.014 292.254C329.01 293.669 329.005 294.975 329.001 296.17C328.999 296.766 328.997 297.336 328.995 297.877C329.003 298.416 328.96 298.944 328.797 299.412C328.496 300.357 327.9 301.084 327.277 301.572C326.652 302.068 326.008 302.348 325.473 302.503C324.937 302.659 324.511 302.705 324.227 302.722C323.943 302.729 323.8 302.727 323.8 302.727Z" fill="#263238"/>
<path d="M296.852 160.09H154.488C152.651 160.09 151.161 158.774 151.161 157.15V92.9807C151.161 91.3566 152.651 90.0397 154.488 90.0397H297.503C299.34 90.0397 300.83 91.3566 300.83 92.9807V156.574C300.831 158.516 299.049 160.09 296.852 160.09Z" fill="white"/>
<path d="M300.831 105.083H151.161V93.2628C151.161 91.4828 152.793 90.0397 154.807 90.0397H297.184C299.197 90.0397 300.83 91.4828 300.83 93.2628V105.083H300.831Z" fill="#E0E0E0"/>
<path d="M296.619 160.09C296.616 160.068 297.021 160.103 297.761 159.922C298.474 159.739 299.594 159.247 300.301 158.07C300.655 157.486 300.81 156.755 300.762 155.935C300.758 155.114 300.754 154.218 300.75 153.247C300.742 151.303 300.734 149.062 300.725 146.54C300.704 136.438 300.674 121.838 300.638 103.8C300.634 101.543 300.631 99.2346 300.628 96.8737C300.627 95.6933 300.625 94.4998 300.624 93.2934C300.742 92.1213 300.012 90.9706 298.805 90.4852C298.205 90.2226 297.56 90.2133 296.841 90.2282C296.137 90.2291 295.431 90.2291 294.72 90.23C293.3 90.2309 291.866 90.2328 290.419 90.2337C287.524 90.2356 284.575 90.2384 281.575 90.2402C269.574 90.2476 256.752 90.2551 243.259 90.2625C216.272 90.2681 186.604 90.2746 155.462 90.282C154.962 90.2829 154.509 90.269 154.074 90.3664C153.636 90.4574 153.221 90.6272 152.856 90.8601C152.126 91.3251 151.619 92.0517 151.482 92.834C151.412 93.2136 151.441 93.647 151.435 94.0757V95.3555V97.9094C151.435 101.309 151.434 104.687 151.434 108.04C151.433 114.745 151.431 121.352 151.43 127.845C151.428 134.337 151.426 140.714 151.424 146.96C151.423 150.083 151.42 153.173 151.419 156.227C151.349 157.687 152.377 159.091 153.89 159.609C154.638 159.897 155.444 159.872 156.309 159.867C157.158 159.867 158.004 159.868 158.847 159.868C185.835 159.887 210.139 159.905 230.554 159.92C250.958 159.952 267.47 159.978 278.895 159.997C284.594 160.016 289.022 160.032 292.038 160.042C293.532 160.052 294.674 160.061 295.456 160.066C296.225 160.074 296.619 160.09 296.619 160.09C296.619 160.09 296.225 160.107 295.455 160.115C294.673 160.121 293.531 160.128 292.037 160.14C289.021 160.15 284.593 160.166 278.894 160.185C267.468 160.204 250.956 160.23 230.553 160.262C210.138 160.277 185.835 160.295 158.846 160.314C158.002 160.315 157.156 160.315 156.308 160.315C155.487 160.322 154.541 160.352 153.698 160.026C151.991 159.451 150.826 157.841 150.905 156.228C150.904 153.173 150.902 150.084 150.901 146.961C150.899 140.715 150.897 134.338 150.895 127.845C150.893 121.353 150.891 114.746 150.89 108.041C150.89 104.688 150.889 101.311 150.889 97.9103V95.3564V94.0767C150.898 93.6526 150.862 93.2257 150.943 92.7589C151.101 91.8494 151.689 91.0077 152.535 90.4694C152.956 90.1994 153.439 90.0027 153.947 89.8969C154.459 89.7836 154.989 89.8003 155.461 89.7994C186.602 89.8059 216.271 89.8124 243.258 89.8189C256.751 89.8263 269.573 89.8337 281.574 89.8412C284.574 89.844 287.523 89.8458 290.418 89.8477C291.865 89.8486 293.299 89.8504 294.719 89.8514C295.43 89.8523 296.136 89.8523 296.84 89.8532C297.517 89.8375 298.318 89.8486 298.982 90.1493C300.35 90.6838 301.174 92.0489 301.037 93.2953C301.036 94.5017 301.034 95.6951 301.033 96.8756C301.03 99.2364 301.027 101.546 301.024 103.801C300.987 121.84 300.958 136.44 300.937 146.542C300.927 149.064 300.919 151.305 300.911 153.249C300.907 154.22 300.902 155.116 300.899 155.937C300.9 156.344 300.894 156.745 300.809 157.114C300.714 157.482 300.579 157.82 300.398 158.117C299.656 159.318 298.503 159.802 297.777 159.972C297.022 160.138 296.619 160.09 296.619 160.09Z" fill="#263238"/>
<path d="M162.3 101.197C163.839 101.197 165.086 100.094 165.086 98.7334C165.086 97.3727 163.839 96.2695 162.3 96.2695C160.76 96.2695 159.513 97.3727 159.513 98.7334C159.513 100.094 160.76 101.197 162.3 101.197Z" fill="white"/>
<path d="M173.662 98.7334C173.662 100.094 172.414 101.197 170.875 101.197C169.337 101.197 168.089 100.094 168.089 98.7334C168.089 97.373 169.337 96.2695 170.875 96.2695C172.414 96.2695 173.662 97.373 173.662 98.7334Z" fill="white"/>
<path d="M179.452 101.197C180.991 101.197 182.238 100.094 182.238 98.7334C182.238 97.3727 180.991 96.2695 179.452 96.2695C177.912 96.2695 176.665 97.3727 176.665 98.7334C176.665 100.094 177.912 101.197 179.452 101.197Z" fill="white"/>
<path d="M194.288 126.282H176.889C175.847 126.282 175.002 125.535 175.002 124.613C175.002 123.692 175.847 122.945 176.889 122.945H194.288C195.33 122.945 196.175 123.692 196.175 124.613C196.175 125.535 195.33 126.282 194.288 126.282Z" fill="#263238"/>
<path d="M194.288 135.017H176.889C175.847 135.017 175.002 134.27 175.002 133.349C175.002 132.427 175.847 131.68 176.889 131.68H194.288C195.33 131.68 196.175 132.427 196.175 133.349C196.175 134.27 195.33 135.017 194.288 135.017Z" fill="#E0E0E0"/>
<path d="M286.133 126.282H235.668C234.625 126.282 233.78 125.535 233.78 124.613C233.78 123.692 234.625 122.945 235.668 122.945H286.133C287.175 122.945 288.02 123.692 288.02 124.613C288.02 125.535 287.175 126.282 286.133 126.282Z" fill="#E0E0E0"/>
<path d="M194.288 144.045H176.889C175.847 144.045 175.002 143.298 175.002 142.376C175.002 141.455 175.847 140.708 176.889 140.708H194.288C195.33 140.708 196.175 141.455 196.175 142.376C196.175 143.298 195.33 144.045 194.288 144.045Z" fill="#F57658"/>
<path d="M274.094 135.017H256.695C255.653 135.017 254.808 134.27 254.808 133.349C254.808 132.427 255.653 131.68 256.695 131.68H274.094C275.136 131.68 275.981 132.427 275.981 133.349C275.982 134.27 275.136 135.017 274.094 135.017Z" fill="#F57658"/>
<path d="M222.162 126.282H204.763C203.72 126.282 202.875 125.535 202.875 124.613C202.875 123.692 203.72 122.945 204.763 122.945H222.161C223.204 122.945 224.049 123.692 224.049 124.613C224.05 125.535 223.205 126.282 222.162 126.282Z" fill="#455A64"/>
<path d="M244.58 135.017H204.763C203.72 135.017 202.875 134.27 202.875 133.349C202.875 132.427 203.72 131.68 204.763 131.68H244.58C245.622 131.68 246.467 132.427 246.467 133.349C246.467 134.27 245.622 135.017 244.58 135.017Z" fill="#263238"/>
<path d="M283.635 144.045H204.679C203.684 144.045 202.876 143.298 202.876 142.376C202.876 141.455 203.684 140.708 204.679 140.708H283.635C284.63 140.708 285.437 141.455 285.437 142.376C285.437 143.298 284.63 144.045 283.635 144.045Z" fill="#E0E0E0"/>
<path d="M243.75 150.405H204.763C203.72 150.405 202.875 149.658 202.875 148.736C202.875 147.815 203.72 147.068 204.763 147.068H243.749C244.792 147.068 245.637 147.815 245.637 148.736C245.638 149.657 244.793 150.405 243.75 150.405Z" fill="#E0E0E0"/>
<path d="M168.36 124.612C168.36 125.549 167.502 126.308 166.443 126.308C165.383 126.308 164.525 125.549 164.525 124.612C164.525 123.676 165.383 122.917 166.443 122.917C167.502 122.918 168.36 123.676 168.36 124.612Z" fill="#455A64"/>
<path d="M168.36 116.253C168.36 117.189 167.502 117.948 166.443 117.948C165.383 117.948 164.525 117.189 164.525 116.253C164.525 115.316 165.383 114.557 166.443 114.557C167.502 114.557 168.36 115.316 168.36 116.253Z" fill="#455A64"/>
<path d="M166.443 135.018C167.502 135.018 168.36 134.259 168.36 133.323C168.36 132.386 167.502 131.627 166.443 131.627C165.383 131.627 164.525 132.386 164.525 133.323C164.525 134.259 165.383 135.018 166.443 135.018Z" fill="#455A64"/>
<path d="M166.443 144.072C167.502 144.072 168.36 143.313 168.36 142.376C168.36 141.44 167.502 140.681 166.443 140.681C165.383 140.681 164.525 141.44 164.525 142.376C164.525 143.313 165.383 144.072 166.443 144.072Z" fill="#455A64"/>
<path d="M187.117 117.467H176.403C175.848 117.467 175.398 117.069 175.398 116.578V115.137C175.398 114.646 175.848 114.248 176.403 114.248H187.117C187.673 114.248 188.123 114.646 188.123 115.137V116.578C188.123 117.069 187.673 117.467 187.117 117.467Z" fill="#455A64"/>
<path d="M77.8672 378.209C69.1118 381.58 60.6754 381.89 52.6557 378.209L46.8026 334.84H83.1798L77.8672 378.209Z" fill="#6F4439"/>
<path d="M80.7718 332.324L79.677 329.228L52.2747 326.269C51.5284 326.188 50.8198 326.58 50.5753 327.209L48.5861 332.325H45.0833V337.939C58.8447 340.083 72.0173 340.21 84.493 337.939V332.325H80.7718V332.324Z" fill="#E0E0E0"/>
<path d="M80.7718 332.324C80.7771 332.318 80.8642 332.311 81.0279 332.305C81.2221 332.298 81.4594 332.292 81.7501 332.283C82.4167 332.271 83.3299 332.254 84.494 332.234L84.5969 332.232L84.5979 332.324C84.6137 333.772 84.6347 335.667 84.6588 337.938L84.6599 338.056L84.5276 338.081C80.1651 338.892 74.3666 339.666 67.6118 339.79C60.8623 339.933 53.1838 339.436 45.1893 338.199L45.0371 338.177L44.8114 338.143V337.938C44.8125 336.032 44.8124 334.155 44.8135 332.324V332.085H45.0843C46.2705 332.086 47.4388 332.087 48.5872 332.088L48.3342 332.247C49.0039 330.534 49.6578 328.86 50.294 327.232C50.4346 326.781 50.845 326.345 51.3594 326.163C51.6155 326.069 51.8968 326.023 52.1719 326.036C52.4458 326.056 52.6537 326.086 52.8972 326.11C53.8356 326.213 54.7583 326.316 55.6663 326.416C59.2919 326.819 62.6677 327.194 65.7297 327.535C71.7906 328.231 76.5993 328.783 79.6896 329.138L79.7568 329.145L79.7746 329.201C80.0948 330.176 80.3456 330.941 80.5283 331.499C80.6039 331.744 80.6658 331.942 80.7162 332.105C80.7592 332.244 80.7771 332.318 80.7718 332.324C80.7666 332.331 80.7372 332.27 80.6847 332.143C80.6228 331.987 80.5472 331.797 80.4548 331.564C80.2428 331.003 79.952 330.235 79.5804 329.254L79.6654 329.317C76.5699 329.004 71.7518 328.516 65.6793 327.902C62.6142 327.58 59.2352 327.227 55.6064 326.846C54.6985 326.75 53.7747 326.652 52.8363 326.553C52.343 326.503 51.9283 326.419 51.5599 326.578C51.183 326.724 50.9059 326.999 50.7831 327.38C50.1522 329.01 49.5035 330.686 48.8401 332.401L48.7782 332.56H48.5872C47.4388 332.561 46.2705 332.562 45.0843 332.563L45.3551 332.324C45.3562 334.154 45.3562 336.031 45.3572 337.937L45.1316 337.7L45.2827 337.722C53.2457 338.953 60.8833 339.467 67.6013 339.359C74.3235 339.268 80.1 338.546 84.4604 337.796L84.3292 337.938C84.3534 335.667 84.3744 333.773 84.3901 332.324L84.493 332.415C83.3089 332.394 82.3789 332.378 81.7008 332.366C81.4174 332.357 81.1864 332.35 80.9975 332.344C80.8432 332.337 80.7666 332.331 80.7718 332.324Z" fill="#263238"/>
<path d="M80.4327 363.833C70.9278 365.19 60.4371 364.994 49.3345 363.833L47.8219 350.685C59.5365 351.799 71.0275 351.846 82.2676 350.685L80.4327 363.833Z" fill="#AE7461"/>
<path d="M62.9374 354.907C61.5151 355.669 60.9378 357.27 61.6547 358.634L62.6435 360.517C63.3605 361.881 65.1156 362.524 66.6912 362.055L62.9374 354.907Z" fill="#6F4439"/>
<path d="M63.6008 354.635L67.3556 361.783C68.7779 361.022 69.3552 359.42 68.6383 358.056L67.6495 356.173C66.9326 354.808 65.1764 354.165 63.6008 354.635Z" fill="#6F4439"/>
<path d="M81.0825 332.406C81.0909 332.439 80.65 332.555 79.8438 332.736C79.0387 332.924 77.861 333.147 76.3956 333.378C73.4669 333.843 69.3626 334.257 64.8133 334.252C60.2629 334.24 56.1596 333.81 53.2331 333.334C51.7687 333.098 50.592 332.871 49.788 332.68C48.9828 332.495 48.542 332.377 48.5514 332.345C48.5598 332.312 49.0164 332.368 49.8331 332.496C50.6487 332.63 51.8317 332.805 53.296 332.997C56.2236 333.385 60.2985 333.757 64.8143 333.769C69.3291 333.774 73.405 333.418 76.3347 333.041C77.8001 332.854 78.9841 332.684 79.7998 332.554C80.6164 332.428 81.0741 332.374 81.0825 332.406Z" fill="#263238"/>
<path d="M99.7766 267.916C99.7766 267.916 93.7839 269.058 92.7426 272.819C91.7013 276.58 101.09 366.544 101.467 368.736C102.059 372.178 105.343 376.552 112.741 376.316C119.189 376.111 207.058 376.292 229.184 376.338C232.124 376.344 233.891 374.13 234.278 371.497L125.484 365.82L99.7766 267.916Z" fill="#E0E0E0"/>
<path d="M97.0474 270.917L106.472 367.937C106.652 369.522 108.146 370.736 109.947 370.762L234.277 371.256L210.393 350.302L129.625 349.799L120.987 273.789C120.866 272.779 120.036 271.948 118.917 271.717L100.824 267.989C98.7647 267.566 96.8427 269.056 97.0474 270.917Z" fill="#E0E0E0"/>
<path d="M97.0484 270.916C97.0484 270.916 97.0127 270.76 97.0284 270.448C97.0421 270.14 97.1334 269.659 97.5123 269.136C97.8797 268.62 98.5904 268.06 99.6264 267.904C100.138 267.814 100.716 267.891 101.28 268.024C101.855 268.14 102.469 268.264 103.121 268.395C105.731 268.925 108.947 269.577 112.724 270.344C114.615 270.729 116.646 271.143 118.813 271.584C119.952 271.752 120.981 272.642 121.112 273.747C121.232 274.786 121.357 275.855 121.485 276.954C123.507 294.535 126.394 319.639 129.859 349.777L129.627 349.59C153.867 349.732 181.204 349.892 210.395 350.063L210.506 350.064L210.583 350.132C218.237 356.845 226.28 363.9 234.47 371.083L234.945 371.499L234.277 371.496C232.538 371.49 230.657 371.481 228.769 371.475C196.438 371.339 165.64 371.211 137.626 371.094C130.624 371.063 123.795 371.032 117.159 371.002C115.501 370.995 113.854 370.988 112.22 370.98C111.398 370.973 110.6 370.982 109.766 370.96C108.902 370.914 108.066 370.595 107.437 370.079C106.805 369.565 106.387 368.858 106.267 368.113C106.175 367.391 106.125 366.704 106.053 366.002C105.918 364.607 105.785 363.224 105.653 361.853C104.599 350.881 103.617 340.661 102.721 331.33C100.946 312.674 99.5089 297.575 98.5148 287.129C98.0309 281.916 97.6551 277.867 97.399 275.109C97.2782 273.742 97.1859 272.697 97.1229 271.983C97.0641 271.279 97.0484 270.916 97.0484 270.916C97.0484 270.916 97.1019 271.276 97.1796 271.979C97.2552 272.693 97.3654 273.736 97.5102 275.102C97.7895 277.858 98.1999 281.904 98.7279 287.113C99.7629 297.556 101.259 312.649 103.107 331.3C104.024 340.629 105.027 350.849 106.105 361.818C106.239 363.189 106.375 364.572 106.511 365.967C106.584 366.659 106.639 367.376 106.727 368.056C106.834 368.707 107.2 369.327 107.754 369.777C108.306 370.229 109.04 370.507 109.795 370.546C110.582 370.565 111.413 370.556 112.225 370.563C113.859 370.568 115.505 370.574 117.165 370.579C123.8 370.602 130.628 370.626 137.632 370.651C165.644 370.756 196.442 370.872 228.772 370.994C230.659 371.001 232.54 371.009 234.279 371.016L234.085 371.429C225.896 364.245 217.856 357.188 210.203 350.474L210.391 350.542C181.2 350.349 153.864 350.168 129.624 350.008L129.413 350.006L129.392 349.82C126.006 319.675 123.187 294.566 121.212 276.98C121.089 275.882 120.971 274.813 120.854 273.775C120.736 272.771 119.819 271.958 118.757 271.794C116.593 271.343 114.564 270.92 112.676 270.527C108.905 269.738 105.695 269.066 103.087 268.52C102.437 268.384 101.824 268.255 101.25 268.134C100.677 267.995 100.144 267.921 99.6432 268.001C98.6418 268.141 97.9417 268.675 97.5732 269.173C97.1932 269.677 97.0893 270.147 97.0641 270.451C97.0368 270.758 97.062 270.916 97.0484 270.916Z" fill="#263238"/>
<path d="M188.054 368.735H199.611L185 351.98H178.141L188.054 368.735Z" fill="#263238"/>
<path d="M101.32 275.302L110.145 359.6L126.589 348.038L119.51 277.015C119.452 276.446 118.959 275.986 118.318 275.904L102.904 273.956C102.006 273.841 101.226 274.504 101.32 275.302Z" fill="#263238"/>
<path d="M118.98 368.735H130.908L143.029 351.98H136.169L118.98 368.735Z" fill="#263238"/>
<path d="M133.62 368.735H145.177L151.511 351.98H144.651L133.62 368.735Z" fill="#263238"/>
<path d="M147.765 368.735H159.323L159.945 351.98H153.085L147.765 368.735Z" fill="#263238"/>
<path d="M160.882 368.735H172.439L168.173 351.98H161.313L160.882 368.735Z" fill="#263238"/>
<path d="M174.554 368.735H186.111L176.695 351.98H169.836L174.554 368.735Z" fill="#263238"/>
<path d="M199.028 365.47C199.028 365.549 181.405 365.614 159.671 365.614C137.93 365.614 120.311 365.549 120.311 365.47C120.311 365.39 137.93 365.325 159.671 365.325C181.405 365.325 199.028 365.39 199.028 365.47Z" fill="#E0E0E0"/>
<path d="M196.934 362.397C196.934 362.477 180.198 362.542 159.557 362.542C138.909 362.542 122.176 362.477 122.176 362.397C122.176 362.317 138.909 362.252 159.557 362.252C180.198 362.252 196.934 362.317 196.934 362.397Z" fill="#E0E0E0"/>
<path d="M196.934 359.609C196.934 359.77 181.186 359.9 161.763 359.9C142.334 359.9 126.589 359.77 126.589 359.609C126.589 359.449 142.334 359.32 161.763 359.32C181.186 359.32 196.934 359.449 196.934 359.609Z" fill="#E0E0E0"/>
<path d="M197.418 357.064C197.418 357.225 182.008 357.355 163.004 357.355C143.993 357.355 128.586 357.225 128.586 357.064C128.586 356.904 143.993 356.774 163.004 356.774C182.008 356.775 197.418 356.905 197.418 357.064Z" fill="#E0E0E0"/>
<path d="M199.028 355.207C199.028 355.367 183.518 355.497 164.39 355.497C145.256 355.497 129.75 355.367 129.75 355.207C129.75 355.047 145.257 354.916 164.39 354.916C183.519 354.917 199.028 355.047 199.028 355.207Z" fill="#E0E0E0"/>
<path d="M200.735 353.266C200.735 353.427 184.934 353.557 165.448 353.557C145.954 353.557 130.156 353.427 130.156 353.266C130.156 353.106 145.954 352.976 165.448 352.976C184.934 352.977 200.735 353.106 200.735 353.266Z" fill="#E0E0E0"/>
<path d="M108.21 367.937C115.39 361.999 122.57 356.06 129.75 350.121L108.21 367.937Z" fill="#E0E0E0"/>
<path d="M129.75 350.121C129.852 350.218 125.114 354.286 119.168 359.205C113.219 364.126 108.314 368.035 108.211 367.937C108.108 367.84 112.845 363.773 118.794 358.852C124.74 353.933 129.646 350.024 129.75 350.121Z" fill="#263238"/>
<path d="M486.174 283.76C486.174 283.76 485.118 273.911 457.352 267.607C443.945 264.563 411.943 263.102 408.316 281.491C408.199 282.087 392.388 397.746 392.388 397.746H451.554L486.174 283.76Z" fill="#455A64"/>
<path d="M476.802 397.746H449.506L458.622 284.43C459.289 278.916 465.745 274.941 473.039 275.551L475.483 275.755C482.778 276.365 487.398 282.578 487.189 289.656L476.802 397.746Z" fill="#455A64"/>
<path d="M451.554 393.667C451.404 393.655 453.331 371.335 455.86 343.817C458.389 316.29 460.56 293.991 460.711 294.002C460.861 294.013 458.933 316.329 456.405 343.856C453.876 371.374 451.704 393.678 451.554 393.667Z" fill="#263238"/>
<path d="M480.934 278.408C480.895 278.501 479.513 277.88 477.097 277.61C474.719 277.327 471.212 277.551 467.993 279.176C464.781 280.812 462.792 283.376 461.867 285.334C460.912 287.314 460.82 288.682 460.71 288.665C460.678 288.662 460.675 288.323 460.763 287.715C460.849 287.108 461.066 286.234 461.509 285.205C462.365 283.163 464.373 280.462 467.72 278.756C471.074 277.063 474.725 276.893 477.151 277.272C478.379 277.453 479.342 277.728 479.979 277.969C480.618 278.209 480.948 278.383 480.934 278.408Z" fill="#263238"/>
<path d="M394.751 136.737C395.025 130.103 389.939 129.207 386.024 129.971C381.267 126.877 374.047 127.225 369.698 130.759C366.134 129.04 361.551 129.107 358.054 130.927C354.555 132.748 352.267 136.259 352.237 139.848C348.156 139.406 343.881 141.485 342.119 144.769C340.358 148.054 341.243 152.296 344.214 154.809C339.848 156.216 337.126 160.769 338.271 164.751C339.415 168.733 344.266 171.585 348.863 170.979L394.905 143.871C397.667 141.301 394.605 140.279 394.751 136.737Z" fill="#263238"/>
<path d="M347.533 172.196C348.474 153.676 365.346 138.903 386.303 138.244L388.386 138.178C410.886 138.632 423.019 155.78 421.885 175.651L421.291 241.857L421.145 254.428L369.7 265.241L369.177 239.034C369.177 239.034 347.472 236.746 346.438 217.674C345.939 208.463 346.656 189.423 347.533 172.196Z" fill="#AE7461"/>
<path d="M368.997 239.013C368.997 239.013 382.808 239.313 396.981 230.806C396.981 230.806 390.882 244.747 369.278 243.706L368.997 239.013Z" fill="#6F4439"/>
<path d="M353.814 191.441C353.814 192.881 355.194 194.069 356.896 194.097C358.594 194.124 359.975 192.981 359.974 191.54C359.972 190.1 358.593 188.91 356.895 188.882C355.193 188.854 353.814 190.001 353.814 191.441Z" fill="#263238"/>
<path d="M352.345 182.363C352.741 182.706 355.014 181.105 358.332 181.009C361.644 180.871 364.138 182.303 364.483 181.932C364.654 181.767 364.238 181.138 363.152 180.489C362.081 179.842 360.276 179.238 358.21 179.311C356.145 179.386 354.434 180.112 353.463 180.833C352.469 181.556 352.149 182.21 352.345 182.363Z" fill="#263238"/>
<path d="M380.473 190.837C380.473 192.277 381.853 193.464 383.556 193.492C385.254 193.52 386.635 192.376 386.634 190.935C386.634 189.496 385.252 188.306 383.554 188.278C381.853 188.249 380.473 189.395 380.473 190.837Z" fill="#263238"/>
<path d="M384.056 180.957C384.452 181.3 386.729 179.7 390.044 179.604C393.355 179.466 395.85 180.898 396.195 180.526C396.365 180.362 395.954 179.733 394.862 179.084C393.792 178.437 391.987 177.833 389.921 177.905C387.857 177.98 386.146 178.707 385.174 179.427C384.185 180.151 383.863 180.804 384.056 180.957Z" fill="#263238"/>
<path d="M374.007 203.032C374.015 202.864 371.942 202.613 368.586 202.341C367.736 202.291 366.929 202.168 366.765 201.661C366.544 201.127 366.866 200.308 367.241 199.424C367.964 197.587 368.721 195.661 369.516 193.644C372.669 185.417 374.917 178.664 374.541 178.554C374.165 178.446 371.306 185.024 368.155 193.251C367.398 195.279 366.674 197.213 365.986 199.062C365.701 199.923 365.187 200.905 365.665 202.014C365.916 202.566 366.553 202.953 367.101 203.064C367.65 203.193 368.127 203.187 368.546 203.196C371.915 203.25 374.001 203.198 374.007 203.032Z" fill="#263238"/>
<path d="M383.849 204.752C383.308 204.741 383.429 207.924 380.439 210.28C377.454 212.642 373.603 212.406 373.592 212.851C373.55 213.053 374.472 213.442 376.094 213.43C377.684 213.428 379.986 212.905 381.816 211.464C383.64 210.019 384.374 208.145 384.444 206.836C384.528 205.501 384.095 204.725 383.849 204.752Z" fill="#263238"/>
<path d="M383.677 172.583C384.102 173.332 386.931 172.559 390.403 172.501C393.873 172.372 396.792 172.99 397.118 172.221C397.259 171.854 396.651 171.178 395.407 170.569C394.174 169.959 392.292 169.476 390.21 169.53C388.13 169.589 386.317 170.171 385.166 170.845C384.007 171.521 383.488 172.227 383.677 172.583Z" fill="#263238"/>
<path d="M352.774 174.298C353.322 174.988 355.642 174.391 358.39 174.472C361.141 174.467 363.438 175.128 364.01 174.454C364.263 174.126 363.932 173.444 362.948 172.772C361.981 172.103 360.333 171.521 358.443 171.493C356.554 171.468 354.887 172.004 353.895 172.647C352.888 173.291 352.533 173.963 352.774 174.298Z" fill="#263238"/>
<path d="M349.256 163.381C349.256 163.381 354.468 151.254 360.872 148.26C368.626 144.636 372.331 152.186 379.775 150.091C387.219 147.996 394.621 144.521 402.511 149.418C411.147 154.778 407.366 158.848 408.226 167.297C411.713 201.553 419.193 211.037 420.56 194.807C420.709 193.029 426.212 191.445 426.736 183.936C427.414 174.198 427.362 162.403 424.636 155.594C422.337 149.854 418.433 145.962 411.543 141.752C400.666 135.106 386.105 135.413 376.255 136.603C366.406 137.794 347.754 148.448 349.256 163.381Z" fill="#263238"/>
<path d="M419.163 194.332C419.179 191.382 421.957 188.967 425.287 189.141C429.325 189.354 433.886 191.233 433.915 198.595C433.969 211.654 419.128 209.007 419.101 208.633C419.083 208.379 419.13 199.797 419.163 194.332Z" fill="#AE7461"/>
<path d="M422.295 203.709C422.36 203.667 422.553 203.868 422.989 204.042C423.413 204.212 424.142 204.328 424.912 204.071C426.471 203.56 427.775 201.366 427.837 199.012C427.87 197.824 427.583 196.693 427.104 195.757C426.649 194.803 425.948 194.138 425.162 194.017C424.38 193.859 423.825 194.277 423.646 194.645C423.449 195.011 423.544 195.271 423.465 195.294C423.425 195.326 423.147 195.076 423.264 194.536C423.324 194.277 423.496 193.968 423.842 193.716C424.196 193.46 424.717 193.328 425.264 193.379C426.404 193.445 427.432 194.369 427.96 195.395C428.55 196.426 428.904 197.698 428.867 199.032C428.783 201.664 427.27 204.131 425.137 204.684C424.098 204.927 423.231 204.653 422.782 204.346C422.323 204.025 422.245 203.733 422.295 203.709Z" fill="#6F4439"/>
<path d="M417.858 169.067C415.988 170.284 414.012 171.539 411.711 171.814C409.41 172.089 406.723 170.999 406.251 168.989C406.04 168.087 406.248 167.026 405.545 166.344C404.705 165.532 403.229 165.841 401.998 165.996C397.725 166.534 393.224 163.989 391.983 160.334C390.947 161.817 388.391 161.833 386.698 160.942C385.004 160.051 383.876 158.54 382.527 157.269C381.178 155.998 379.313 154.881 377.372 155.189C376.287 155.359 375.289 155.966 374.189 155.914C372.245 155.823 371.218 153.847 370.857 152.156C370.495 150.465 370.187 148.488 368.509 147.616C366.953 146.808 365.003 147.365 363.228 147.653C361.454 147.942 359.136 147.644 358.617 146.116C358.346 145.315 358.703 144.451 359.182 143.729C361.351 140.46 366.304 138.881 370.333 140.177C371.603 135.821 376.028 132.323 381.066 131.693C386.104 131.062 391.453 133.337 394.04 137.21C397.058 134.611 401.547 133.418 405.686 134.117C409.825 134.816 413.501 137.386 415.222 140.787C418.777 139.839 422.917 140.938 425.296 143.459C427.675 145.981 428.151 149.779 426.457 152.702C429.163 153.958 431.528 156.216 431.691 158.915C431.855 161.613 428.988 164.396 426.012 163.779C427.287 165.844 426.433 168.728 424.177 169.975C421.92 171.221 418.614 170.637 417.074 168.719" fill="#263238"/>
<path d="M427.095 163.715C427.145 163.679 427.411 164.803 426.276 166.252C425.714 166.94 424.733 167.668 423.382 167.903C422.062 168.143 420.42 167.905 419.132 166.955L419.753 166.853C419.068 167.999 418.151 169.173 416.938 170.198C416.157 170.852 415.284 171.415 414.31 171.76C413.356 172.132 412.255 172.199 411.35 172.098C409.472 171.975 407.805 171.138 407.005 170.072C406.176 169.032 405.887 168.05 405.701 167.396C405.525 166.733 405.495 166.356 405.545 166.345C405.608 166.33 405.748 166.685 406.017 167.31C406.291 167.926 406.671 168.85 407.48 169.747C408.953 171.575 413.549 172.387 416.354 169.653C417.48 168.702 418.368 167.591 419.04 166.516L419.284 166.124L419.661 166.414C420.707 167.219 422.113 167.472 423.259 167.304C424.423 167.145 425.314 166.563 425.88 165.976C427.016 164.751 426.965 163.686 427.095 163.715Z" fill="#455A64"/>
<path d="M252.63 334.539C252.63 334.539 224.785 333.801 223.116 333.34C221.447 332.878 217.38 332.787 215.398 333.34C213.416 333.893 205.49 336.383 205.49 336.383L188.668 340.347C188.668 340.347 171.762 350.123 172.116 352.079C172.47 354.036 174.306 355.376 177.331 354.362C180.355 353.348 195.618 346.34 195.618 346.34L212.37 344.773C212.37 344.773 235.282 352.049 239.905 351.689C244.529 351.328 256.383 349.555 256.383 349.555C256.383 349.555 258.053 339.057 257.218 337.398C256.385 335.738 252.63 334.539 252.63 334.539Z" fill="#AE7461"/>
<path d="M173.326 360.775C173.326 360.775 187.437 347.397 191.349 345.593C195.259 343.789 217.021 340.633 217.021 340.633C217.021 340.633 223.992 338.077 226.542 338.979C229.092 339.881 256.125 343.489 257.315 343.639C258.505 343.789 251.534 364.683 251.534 364.683C251.534 364.683 242.183 366.186 231.302 363.931C220.421 361.676 216.681 358.67 216.681 358.67L205.819 356.149L199.173 358.39C199.173 358.39 197.98 367.088 193.218 366.637L191.007 365.284L192.708 355.664L185.737 358.219C185.737 358.219 180.296 365.434 176.216 364.382C172.136 363.33 173.326 360.775 173.326 360.775Z" fill="#AE7461"/>
<path d="M173.326 360.775C173.354 360.777 173.153 361.124 173.218 361.819C173.257 362.16 173.395 362.588 173.744 362.993C174.09 363.399 174.644 363.759 175.342 364.021C176.04 364.282 176.874 364.505 177.791 364.332C178.698 364.149 179.606 363.702 180.492 363.12C182.261 361.942 183.983 360.221 185.614 358.147L185.64 358.113L185.68 358.098C187.77 357.325 190.118 356.456 192.641 355.522L192.925 355.416L192.878 355.687C192.375 358.582 191.811 361.83 191.206 365.311L191.122 365.136C191.797 365.548 192.56 366.013 193.336 366.485L193.24 366.453C194.13 366.524 195.015 366.222 195.692 365.658C196.375 365.1 196.911 364.366 197.315 363.57C198.139 361.982 198.651 360.193 198.944 358.364L198.964 358.241L199.091 358.199C201.161 357.497 203.421 356.732 205.734 355.949L205.805 355.925L205.881 355.943C209.312 356.735 212.976 357.582 216.746 358.453L216.794 358.464L216.852 358.504C218.987 359.979 221.667 360.997 224.367 361.89C227.099 362.756 229.973 363.458 232.927 363.995C235.883 364.53 238.947 364.817 242.059 364.905C245.166 364.982 248.351 364.878 251.486 364.444L251.273 364.613C251.753 363.138 252.27 361.553 252.789 359.959C254.282 355.233 255.783 350.58 256.874 345.98C256.999 345.407 257.12 344.828 257.171 344.267C257.183 344.129 257.187 343.987 257.171 343.878C257.181 343.818 257.106 343.783 257.214 343.861C257.233 343.87 257.255 343.875 257.274 343.875L257.246 343.871L257.184 343.863L257.062 343.847L256.081 343.717C254.777 343.541 253.483 343.365 252.196 343.191C249.626 342.832 247.088 342.479 244.59 342.131C239.596 341.418 234.758 340.719 230.116 339.936C228.953 339.722 227.818 339.55 226.667 339.238C225.637 338.884 224.496 339.004 223.401 339.151C221.203 339.495 219.097 340.13 217.108 340.821L217.082 340.831L217.058 340.834C209.451 341.965 202.492 343.071 196.423 344.359C194.908 344.683 193.445 345.032 192.098 345.478C190.769 345.939 189.704 346.777 188.668 347.529C186.614 349.07 184.829 350.593 183.221 351.967C180.012 354.723 177.57 356.955 175.897 358.466C175.075 359.213 174.439 359.79 173.993 360.195C173.561 360.585 173.326 360.775 173.326 360.775C173.326 360.775 173.527 360.554 173.941 360.15C174.375 359.735 174.994 359.144 175.796 358.38C177.438 356.841 179.85 354.583 183.035 351.798C184.633 350.411 186.405 348.874 188.46 347.311C188.975 346.921 189.506 346.53 190.079 346.158C190.64 345.781 191.271 345.425 191.967 345.192C193.349 344.726 194.813 344.371 196.333 344.038C202.418 342.717 209.369 341.587 216.983 340.434L216.933 340.447C218.955 339.738 221.061 339.096 223.322 338.734C224.436 338.582 225.673 338.442 226.833 338.833C227.893 339.118 229.066 339.299 230.211 339.506C234.841 340.279 239.682 340.969 244.673 341.675C247.171 342.02 249.707 342.37 252.278 342.726C253.564 342.898 254.859 343.073 256.162 343.248L257.14 343.377L257.262 343.393L257.323 343.401L257.357 343.406C257.394 343.413 257.435 343.426 257.472 343.445C257.713 343.606 257.677 343.734 257.704 343.814C257.728 343.995 257.72 344.148 257.708 344.302C257.654 344.911 257.53 345.491 257.404 346.075C256.307 350.715 254.809 355.359 253.314 360.094C252.794 361.69 252.276 363.276 251.795 364.752L251.747 364.899L251.581 364.922C248.372 365.365 245.184 365.465 242.04 365.387C238.899 365.295 235.806 365.003 232.819 364.46C229.834 363.914 226.948 363.205 224.185 362.326C222.807 361.882 221.464 361.385 220.171 360.824C218.88 360.252 217.637 359.656 216.508 358.838L216.614 358.889C212.846 358.01 209.185 357.156 205.756 356.356L205.902 356.349C203.587 357.126 201.325 357.886 199.252 358.581L199.398 358.416C199.089 360.294 198.568 362.094 197.71 363.738C197.287 364.558 196.726 365.331 195.977 365.94C195.238 366.556 194.204 366.912 193.194 366.821L193.142 366.816L193.097 366.789C192.325 366.314 191.564 365.845 190.891 365.433L190.787 365.368L190.807 365.258C191.433 361.78 192.015 358.535 192.535 355.642L192.775 355.805C190.245 356.724 187.891 357.579 185.795 358.34L185.861 358.291C184.19 360.382 182.446 362.097 180.628 363.283C179.718 363.867 178.782 364.319 177.83 364.5C176.861 364.674 175.974 364.423 175.278 364.148C174.567 363.87 173.998 363.486 173.649 363.055C173.294 362.625 173.165 362.176 173.139 361.823C173.099 361.108 173.326 360.775 173.326 360.775Z" fill="#6F4439"/>
<path d="M216.063 349.453C216.057 349.486 215.676 349.476 214.991 349.43C214.306 349.383 213.316 349.3 212.094 349.187C210.827 349.062 209.384 348.92 207.808 348.765C207.404 348.724 206.99 348.68 206.57 348.636C206.148 348.581 205.78 348.605 205.337 348.659C204.482 348.763 203.594 348.944 202.693 349.145C199.153 350.053 195.612 350.657 194.248 352.514C193.523 353.356 193.187 354.187 192.988 354.757C192.799 355.333 192.748 355.666 192.709 355.663C192.673 355.662 192.651 355.318 192.782 354.712C192.922 354.113 193.209 353.232 193.936 352.311C194.306 351.86 194.773 351.394 195.378 351.004C195.982 350.619 196.718 350.296 197.485 350.059C199.022 349.563 200.731 349.092 202.558 348.676C203.473 348.473 204.371 348.292 205.27 348.189C205.7 348.134 206.208 348.114 206.628 348.177C207.049 348.226 207.46 348.274 207.865 348.322C209.437 348.515 210.877 348.691 212.141 348.846C213.358 349.003 214.34 349.137 215.018 349.241C215.695 349.347 216.068 349.42 216.063 349.453Z" fill="#6F4439"/>
<path d="M178.166 356.325C178.141 356.302 178.55 355.925 179.333 355.286C180.116 354.647 181.271 353.744 182.734 352.666C184.199 351.589 185.967 350.331 188.009 349.02C189.034 348.369 190.126 347.704 191.309 347.073C191.905 346.764 192.522 346.462 193.189 346.205C193.874 345.95 194.564 345.786 195.269 345.615C200.907 344.241 206.184 343.882 209.94 343.384C211.755 343.184 213.26 343.019 214.413 342.892C215.471 342.786 216.057 342.744 216.063 342.777C216.068 342.81 215.491 342.915 214.442 343.078C213.296 343.244 211.8 343.461 209.996 343.721C206.252 344.306 200.993 344.719 195.413 346.081C194.719 346.248 194.021 346.416 193.402 346.647C192.772 346.888 192.167 347.179 191.582 347.481C190.417 348.094 189.327 348.746 188.301 349.382C186.257 350.665 184.469 351.892 182.977 352.931C181.555 353.944 180.375 354.784 179.472 355.428C178.649 356.022 178.193 356.352 178.166 356.325Z" fill="#6F4439"/>
<path d="M354.021 269.159C354.021 269.159 346.596 278.17 340.715 288.999C335.674 298.28 319.356 329.874 319.356 329.874L252.884 332.959L253.864 355.664C253.864 355.664 318.068 375.886 332.44 371.985C346.812 368.085 362.122 353.434 362.122 353.434L368.996 257.662C368.996 257.662 363.294 256.712 354.021 269.159Z" fill="#F57658"/>
<path d="M367.919 257.878C367.919 257.878 350.875 292.056 348.384 306.534C343.44 335.277 341.779 353.266 341.779 353.266L335.984 397.746H449.507C449.507 397.746 453.266 315.309 450.852 287.668C449.043 266.959 431.103 254.061 423.763 246.977C423.321 246.551 421.3 240.753 421.3 240.753L368.399 252.731L367.919 257.878Z" fill="#F57658"/>
<path d="M362.429 263.072C362.437 263.076 362.393 263.185 362.298 263.396C362.189 263.628 362.046 263.937 361.864 264.328C361.463 265.17 360.893 266.368 360.166 267.899C358.705 271.004 356.601 275.506 354.484 281.217C352.352 286.923 350.266 293.85 348.615 301.663C346.926 309.468 345.558 318.13 344.417 327.25C342.325 345.51 340.431 362.037 339.057 374.032C338.355 379.996 337.785 384.831 337.388 388.205C337.181 389.855 337.021 391.147 336.906 392.056C336.848 392.475 336.803 392.806 336.768 393.056C336.733 393.281 336.711 393.396 336.702 393.395C336.692 393.394 336.697 393.277 336.712 393.05C336.733 392.8 336.762 392.468 336.797 392.045C336.887 391.134 337.015 389.839 337.177 388.185C337.533 384.806 338.044 379.966 338.674 373.996C339.987 362.018 341.721 345.468 343.875 327.196C345.017 318.069 346.402 309.396 348.121 301.578C349.803 293.754 351.935 286.814 354.118 281.109C356.288 275.397 358.45 270.908 359.971 267.824C360.722 266.277 361.349 265.094 361.764 264.288C361.968 263.904 362.127 263.603 362.248 263.374C362.358 263.172 362.42 263.069 362.429 263.072Z" fill="#263238"/>
<g opacity="0.3">
<path d="M421.407 316.876C420.362 307.769 415.734 298.635 407.261 293.375L338.041 380.763C350.262 386.589 363.829 392.605 377.406 390.037C384.709 388.656 391.203 384.849 396.469 380.166C407.415 370.434 413.354 357.173 417.527 343.953C420.311 335.138 422.452 325.981 421.407 316.876Z" fill="black"/>
</g>
<path d="M429.254 306.319C420.63 333.299 401.221 366.219 395.26 372.833C383.616 385.754 368.226 388.544 359.045 388.544C351.235 388.544 285.229 377.179 265.669 373.782C262.367 373.208 259.778 370.946 259.086 368.034L258.916 367.318L250.11 365.222L254.799 344.333L255.735 343.176L350.137 345.801L377.599 278.18C378.117 277.407 386.049 254.715 407.553 255.746" fill="#F57658"/>
<path d="M407.553 255.744C407.553 255.744 407.311 255.754 406.839 255.753C406.367 255.76 405.661 255.719 404.736 255.798C402.892 255.895 400.114 256.226 396.803 257.464C393.52 258.723 389.79 261.003 386.444 264.529C383.061 268.036 380.091 272.665 377.731 278.248L377.744 278.225C370.808 295.358 361.389 318.625 350.361 345.871L350.303 346.015L350.129 346.01C322.035 345.238 289.938 344.355 255.726 343.414L255.956 343.314C255.663 343.676 255.342 344.074 255.021 344.471L255.066 344.379C253.71 350.42 252.268 356.846 250.809 363.343C250.661 364.001 250.513 364.66 250.378 365.267L250.181 364.987C253.238 365.715 256.197 366.42 258.987 367.083L259.159 367.124L259.183 367.267C259.483 369.004 260.335 370.606 261.778 371.764C262.483 372.343 263.301 372.815 264.191 373.132C265.071 373.467 266.032 373.594 267.01 373.768C270.89 374.438 274.741 375.103 278.563 375.763C286.211 377.064 293.741 378.345 301.133 379.601C315.924 382.079 330.173 384.436 343.765 386.469C347.165 386.967 350.523 387.444 353.843 387.859C355.505 388.043 357.156 388.249 358.785 388.315C360.426 388.334 362.064 388.261 363.675 388.098C370.132 387.491 376.224 385.683 381.516 383.038C386.827 380.393 391.257 376.855 394.83 372.998C396.59 371.057 398.007 368.939 399.409 366.889C400.784 364.823 402.082 362.776 403.311 360.759C413.086 344.587 419.486 330.875 423.552 321.327C425.551 316.538 426.971 312.782 427.875 310.221C428.32 308.946 428.659 307.971 428.892 307.305C429.124 306.649 429.255 306.317 429.255 306.317C429.255 306.317 429.159 306.658 428.944 307.319C428.723 307.988 428.4 308.967 427.977 310.25C427.106 312.821 425.716 316.589 423.747 321.391C419.737 330.966 413.387 344.706 403.644 360.918C402.419 362.94 401.125 364.994 399.751 367.069C398.348 369.127 396.934 371.253 395.151 373.228C391.559 377.122 387.093 380.701 381.736 383.379C376.396 386.059 370.248 387.891 363.725 388.513C362.097 388.679 360.445 388.755 358.779 388.737C357.098 388.671 355.447 388.465 353.778 388.282C350.45 387.87 347.087 387.396 343.684 386.9C330.081 384.878 315.829 382.532 301.034 380.061C293.641 378.806 286.111 377.528 278.462 376.231C274.639 375.572 270.786 374.908 266.907 374.238C265.951 374.069 264.935 373.935 263.984 373.576C263.034 373.236 262.161 372.733 261.408 372.116C259.875 370.902 258.948 369.123 258.651 367.366L258.847 367.549C256.058 366.886 253.099 366.181 250.041 365.453L249.794 365.394L249.844 365.173C249.98 364.566 250.127 363.908 250.275 363.248C251.734 356.752 253.177 350.325 254.534 344.284L254.545 344.233L254.58 344.19C254.901 343.792 255.223 343.395 255.515 343.033L255.6 342.928L255.745 342.932C289.955 343.894 322.052 344.797 350.146 345.587L349.914 345.726C361.007 318.501 370.481 295.251 377.456 278.131L377.469 278.108C379.812 272.595 382.853 267.886 386.264 264.391C389.649 260.856 393.424 258.576 396.741 257.329C400.085 256.104 402.882 255.795 404.733 255.722C405.663 255.655 406.37 255.708 406.843 255.713C407.314 255.728 407.553 255.744 407.553 255.744Z" fill="#263238"/>
<path d="M329.335 340.446C329.172 340.52 327.867 337.431 324.784 334.54C321.738 331.615 318.347 330.246 318.442 330.107C318.468 330.057 319.343 330.327 320.639 330.986C321.934 331.642 323.621 332.731 325.185 334.21C326.742 335.693 327.851 337.258 328.5 338.446C329.151 339.635 329.394 340.426 329.335 340.446Z" fill="#263238"/>
<path d="M361.551 362.161C361.458 362.173 361.274 361.091 360.726 359.408C360.183 357.725 359.198 355.453 357.628 353.172C356.05 350.896 354.215 349.083 352.769 347.886C351.326 346.687 350.322 346.048 350.376 345.979C350.398 345.952 350.667 346.088 351.137 346.359C351.613 346.623 352.262 347.057 353.028 347.633C354.56 348.78 356.484 350.597 358.095 352.921C359.696 355.248 360.645 357.592 361.099 359.321C361.329 360.185 361.467 360.894 361.517 361.389C361.575 361.883 361.589 362.157 361.551 362.161Z" fill="#263238"/>
<g opacity="0.3">
<path d="M336.37 345.273L341.865 345.453C342.751 326.391 347.196 307.382 350.998 288.602C341.307 306.098 338.768 325.91 336.37 345.273Z" fill="black"/>
</g>
<path d="M421.92 246.977C421.924 246.993 421.746 247.048 421.402 247.137C420.996 247.235 420.497 247.356 419.891 247.503C418.498 247.831 416.616 248.274 414.326 248.812C409.626 249.915 403.151 251.499 395.952 253.104C388.751 254.713 382.166 255.951 377.361 256.649C374.959 257 373.008 257.248 371.653 257.37C371.028 257.426 370.512 257.472 370.094 257.509C369.737 257.536 369.548 257.542 369.546 257.525C369.544 257.508 369.727 257.47 370.08 257.413C370.495 257.352 371.005 257.275 371.624 257.184C372.968 257.004 374.905 256.706 377.293 256.312C382.071 255.53 388.625 254.242 395.818 252.634C403.01 251.031 409.502 249.5 414.23 248.481C416.592 247.965 418.511 247.573 419.841 247.321C420.457 247.209 420.964 247.117 421.376 247.042C421.728 246.984 421.915 246.961 421.92 246.977Z" fill="#263238"/>
</svg>
